<?xml version="1.0" encoding="utf-8"?>
<!-- Generator: Adobe Illustrator 22.1.0, SVG Export Plug-In . SVG Version: 6.00 Build 0)  -->
<svg version="1.1" id="레이어_1" xmlns="http://www.w3.org/2000/svg" xmlns:xlink="http://www.w3.org/1999/xlink" x="0px"
	 y="0px" viewBox="0 0 1000 1000" style="enable-background:new 0 0 1000 1000;" xml:space="preserve">
<style type="text/css">
	.st0{fill:#FFFFFF;}
	.st1{fill:#99DAF6;}
	.st2{fill:#1AA0E6;}
	.st3{font-family:'Comfortaa-Regular';}
	.st4{font-size:100px;}
</style>
<g>
	<path class="st0" d="M500,849c-47.1,0-92.8-9.2-135.9-27.4c-41.6-17.6-78.9-42.7-110.9-74.8c-32-32-57.2-69.4-74.8-110.9
		c-18.2-43-27.4-88.7-27.4-135.9c0-47.1,9.2-92.8,27.4-135.9c17.6-41.6,42.7-78.9,74.8-110.9s69.4-57.2,110.9-74.8
		c43-18.2,88.7-27.4,135.9-27.4c47.1,0,92.8,9.2,135.9,27.4c41.6,17.6,78.9,42.7,110.9,74.8c32,32,57.2,69.4,74.8,110.9
		c18.2,43,27.4,88.7,27.4,135.9c0,47.1-9.2,92.8-27.4,135.9c-17.6,41.6-42.7,78.9-74.8,110.9c-32,32-69.4,57.2-110.9,74.8
		C592.8,839.8,547.1,849,500,849z"/>
	<path class="st1" d="M500,176c178.9,0,324,145.1,324,324S678.9,824,500,824S176,678.9,176,500S321.1,176,500,176 M500,126
		c-50.5,0-99.4,9.9-145.6,29.4c-44.5,18.8-84.5,45.8-118.9,80.1s-61.3,74.3-80.1,118.9C135.9,400.6,126,449.5,126,500
		s9.9,99.4,29.4,145.6c18.8,44.5,45.8,84.5,80.1,118.9s74.3,61.3,118.9,80.1C400.6,864.1,449.5,874,500,874s99.4-9.9,145.6-29.4
		c44.5-18.8,84.5-45.8,118.9-80.1s61.3-74.3,80.1-118.9C864.1,599.4,874,550.5,874,500s-9.9-99.4-29.4-145.6
		c-18.8-44.5-45.8-84.5-80.1-118.9s-74.3-61.3-118.9-80.1C599.4,135.9,550.5,126,500,126L500,126z"/>
</g>
<g>
	<path class="st0" d="M500,799c-79.9,0-154.9-31.1-211.4-87.6C232.1,654.9,201,579.9,201,500c0-79.9,31.1-154.9,87.6-211.4
		C345.1,232.1,420.1,201,500,201c79.9,0,154.9,31.1,211.4,87.6C767.9,345.1,799,420.1,799,500c0,79.9-31.1,154.9-87.6,211.4
		C654.9,767.9,579.9,799,500,799z"/>
	<path class="st2" d="M500,226c37,0,72.9,7.2,106.6,21.5c32.6,13.8,61.9,33.6,87.1,58.7c25.2,25.2,44.9,54.5,58.7,87.1
		C766.8,427.1,774,463,774,500s-7.2,72.9-21.5,106.6c-13.8,32.6-33.6,61.9-58.7,87.1c-25.2,25.2-54.5,44.9-87.1,58.7
		C572.9,766.8,537,774,500,774s-72.9-7.2-106.6-21.5c-32.6-13.8-61.9-33.6-87.1-58.7c-25.2-25.2-44.9-54.5-58.7-87.1
		C233.2,572.9,226,537,226,500s7.2-72.9,21.5-106.6c13.8-32.6,33.6-61.9,58.7-87.1s54.5-44.9,87.1-58.7C427.1,233.2,463,226,500,226
		 M500,176c-178.9,0-324,145.1-324,324s145.1,324,324,324s324-145.1,324-324S678.9,176,500,176L500,176z"/>
</g>
<g>
	<path class="st2" d="M500,105.7c-0.1,0-0.1,0-0.2,0c0,0,0,0-0.1,0c0,0-0.1,0-0.1,0c0,0,0,0-0.1,0c0,0-0.1,0-0.1,0c0,0-0.1,0-0.1,0
		c0,0-0.1,0-0.1,0c0,0,0,0,0,0c-0.1,0-0.1,0-0.2,0c0,0,0,0,0,0c0,0-0.1,0-0.1,0c0,0,0,0-0.1,0c0,0-0.1,0-0.1,0c0,0,0,0-0.1,0
		c0,0-0.1,0-0.1,0c0,0,0,0,0,0c-0.2,0-0.4,0-0.6,0l0,0c-0.3,0-0.6,0-1,0c-1.4,0-2.5,1.1-2.5,2.5c0,1.4,1.1,2.5,2.5,2.5c0,0,0,0,0,0
		c1,0,2,0,3.1,0c1.4,0,2.5-1.1,2.5-2.5C502.5,106.8,501.4,105.7,500,105.7L500,105.7L500,105.7z M482,106.1
		C482,106.1,482,106.1,482,106.1c-0.8,0-1.5,0.1-2.1,0.1c0,0,0,0,0,0c-0.1,0-0.1,0-0.1,0c0,0-0.1,0-0.1,0c0,0,0,0-0.1,0
		c-0.3,0-0.5,0-0.8,0c-1.4,0.1-2.4,1.2-2.4,2.6c0.1,1.3,1.2,2.4,2.5,2.4c0,0,0.1,0,0.1,0c1-0.1,2-0.1,3.1-0.2
		c1.4-0.1,2.4-1.2,2.4-2.6C484.5,107.1,483.3,106.1,482,106.1L482,106.1z M464.1,107.3c-0.1,0-0.1,0-0.2,0c-0.2,0-0.5,0-0.7,0.1
		c0,0-0.1,0-0.1,0c0,0,0,0,0,0c-0.8,0.1-1.5,0.1-2.3,0.2c-1.4,0.1-2.4,1.4-2.2,2.7c0.1,1.3,1.2,2.3,2.5,2.3c0.1,0,0.2,0,0.2,0
		c1-0.1,2-0.2,3-0.3c1.4-0.1,2.4-1.3,2.3-2.7C466.4,108.3,465.4,107.3,464.1,107.3L464.1,107.3z M446.2,109.3c-0.1,0-0.2,0-0.3,0
		c-0.2,0-0.5,0.1-0.7,0.1c0,0,0,0-0.1,0c0,0-0.1,0-0.1,0c0,0-0.1,0-0.1,0c0,0,0,0,0,0c-0.6,0.1-1.1,0.2-1.7,0.2c0,0-0.1,0-0.1,0l0,0
		c-0.1,0-0.1,0-0.2,0c-1.4,0.2-2.3,1.5-2.1,2.8c0.2,1.2,1.2,2.1,2.5,2.1c0.1,0,0.2,0,0.4,0c1-0.1,2-0.3,3-0.4
		c1.4-0.2,2.3-1.4,2.1-2.8C448.5,110.3,447.4,109.3,446.2,109.3L446.2,109.3z M428.4,112.2c-0.2,0-0.3,0-0.5,0
		c-0.2,0-0.4,0.1-0.6,0.1c0,0,0,0-0.1,0c0,0-0.1,0-0.1,0c-0.8,0.1-1.6,0.3-2.4,0.4c-1.3,0.3-2.2,1.6-2,2.9c0.2,1.2,1.3,2,2.5,2
		c0.2,0,0.3,0,0.5,0c1-0.2,2-0.4,3-0.6c1.4-0.3,2.3-1.6,2-2.9C430.7,113,429.6,112.2,428.4,112.2L428.4,112.2z M410.8,115.9
		c-0.2,0-0.4,0-0.6,0.1c-0.4,0.1-0.8,0.2-1.2,0.3c0,0,0,0-0.1,0c0,0-0.1,0-0.1,0c0,0-0.1,0-0.1,0c0,0,0,0-0.1,0
		c-0.5,0.1-1,0.2-1.5,0.4c-1.3,0.3-2.2,1.7-1.8,3c0.3,1.1,1.3,1.9,2.4,1.9c0.2,0,0.4,0,0.6-0.1c1-0.2,2-0.5,3-0.7
		c1.3-0.3,2.2-1.7,1.9-3C413,116.6,412,115.9,410.8,115.9L410.8,115.9z M393.4,120.3c-0.2,0-0.5,0-0.7,0.1l0,0c-0.1,0-0.1,0-0.2,0
		l0,0c-0.2,0.1-0.4,0.1-0.5,0.2l0,0c-0.1,0-0.1,0-0.2,0c0,0,0,0,0,0c-0.1,0-0.2,0.1-0.4,0.1l0,0c-0.1,0-0.1,0-0.2,0c0,0,0,0,0,0
		c-0.1,0-0.1,0-0.2,0l0,0c-0.4,0.1-0.9,0.2-1.3,0.4c-1.3,0.4-2.1,1.8-1.7,3.1c0.3,1.1,1.3,1.8,2.4,1.8c0.2,0,0.5,0,0.7-0.1
		c1-0.3,2-0.6,2.9-0.8c1.3-0.4,2.1-1.8,1.7-3.1C395.5,121.1,394.5,120.3,393.4,120.3L393.4,120.3z M376.2,125.6
		c-0.3,0-0.5,0-0.8,0.1c-0.2,0.1-0.3,0.1-0.5,0.2c0,0-0.1,0-0.1,0c0,0,0,0-0.1,0c-0.8,0.3-1.5,0.5-2.3,0.8c-1.3,0.4-2,1.9-1.5,3.2
		c0.4,1,1.3,1.7,2.4,1.7c0.3,0,0.5,0,0.8-0.1c1-0.3,1.9-0.7,2.9-1c1.3-0.4,2-1.9,1.6-3.2C378.3,126.3,377.3,125.6,376.2,125.6
		L376.2,125.6z M359.3,131.7c-0.3,0-0.6,0.1-0.9,0.2c-0.1,0-0.2,0.1-0.4,0.1l0,0c-0.1,0-0.1,0-0.2,0.1c0,0,0,0,0,0
		c-0.1,0-0.1,0-0.2,0.1l0,0c-0.7,0.3-1.4,0.6-2.2,0.8c-1.3,0.5-1.9,2-1.4,3.2c0.4,1,1.3,1.6,2.3,1.6c0.3,0,0.6-0.1,0.9-0.2
		c0.9-0.4,1.9-0.7,2.9-1.1c1.3-0.5,1.9-1.9,1.4-3.2C361.3,132.3,360.3,131.7,359.3,131.7L359.3,131.7z M342.7,138.5
		c-0.3,0-0.7,0.1-1,0.2c-0.9,0.4-1.8,0.8-2.7,1.2c0,0,0,0,0,0c0,0-0.1,0-0.1,0c-1.3,0.6-1.8,2-1.3,3.3c0.4,0.9,1.3,1.5,2.3,1.5
		c0.3,0,0.7-0.1,1-0.2c0.9-0.4,1.9-0.8,2.8-1.2c1.3-0.6,1.8-2,1.3-3.3C344.6,139.1,343.6,138.5,342.7,138.5L342.7,138.5z
		 M326.4,146.1c-0.4,0-0.7,0.1-1.1,0.3c-0.9,0.5-1.9,0.9-2.8,1.4c-1.2,0.6-1.7,2.1-1.1,3.4c0.4,0.9,1.3,1.4,2.2,1.4
		c0.4,0,0.8-0.1,1.1-0.3c0.9-0.5,1.8-0.9,2.7-1.4c1.2-0.6,1.7-2.1,1.1-3.3C328.2,146.7,327.3,146.1,326.4,146.1L326.4,146.1z
		 M310.5,154.5c-0.4,0-0.8,0.1-1.2,0.3c-0.5,0.3-1,0.6-1.5,0.8c0,0,0,0,0,0c0,0-0.1,0-0.1,0.1c0,0,0,0-0.1,0c0,0,0,0-0.1,0
		c0,0-0.1,0-0.1,0c0,0,0,0,0,0c-0.1,0-0.2,0.1-0.2,0.1c0,0,0,0,0,0c0,0-0.1,0-0.1,0.1c0,0,0,0,0,0c-0.1,0.1-0.3,0.2-0.4,0.2
		c-1.2,0.7-1.6,2.2-0.9,3.4c0.5,0.8,1.3,1.3,2.2,1.3c0.4,0,0.8-0.1,1.2-0.3c0.9-0.5,1.8-1,2.7-1.5c1.2-0.7,1.6-2.2,1-3.4
		C312.2,155,311.3,154.5,310.5,154.5L310.5,154.5z M294.9,163.6c-0.4,0-0.9,0.1-1.3,0.4c-0.9,0.5-1.8,1.1-2.7,1.6
		c-1.2,0.7-1.5,2.3-0.8,3.4c0.5,0.8,1.3,1.2,2.1,1.2c0.5,0,0.9-0.1,1.3-0.4c0.9-0.5,1.7-1.1,2.6-1.6c1.2-0.7,1.5-2.3,0.8-3.4
		C296.6,164,295.8,163.6,294.9,163.6L294.9,163.6z M279.8,173.3c-0.5,0-1,0.1-1.4,0.4c0,0,0,0-0.1,0c0,0-0.1,0-0.1,0.1l0,0
		c-0.8,0.5-1.6,1.1-2.4,1.6c-1.1,0.8-1.4,2.3-0.6,3.5c0.5,0.7,1.3,1.1,2.1,1.1c0.5,0,1-0.1,1.4-0.4c0.8-0.6,1.7-1.2,2.5-1.7
		c1.1-0.8,1.4-2.3,0.7-3.5C281.4,173.7,280.6,173.3,279.8,173.3L279.8,173.3z M265.2,183.8c-0.5,0-1,0.2-1.5,0.5c0,0,0,0-0.1,0
		c0,0-0.1,0-0.1,0.1l0,0c-0.7,0.5-1.3,1-2,1.5l0,0c0,0-0.1,0.1-0.1,0.1c0,0,0,0,0,0c0,0,0,0-0.1,0c0,0-0.1,0-0.1,0.1
		c-1.1,0.8-1.3,2.4-0.5,3.5c0.5,0.6,1.2,1,2,1c0.5,0,1.1-0.2,1.5-0.5c0.8-0.6,1.6-1.2,2.4-1.8c1.1-0.8,1.3-2.4,0.5-3.5
		C266.7,184.1,266,183.8,265.2,183.8L265.2,183.8z M251.1,194.9c-0.6,0-1.1,0.2-1.6,0.6c-0.5,0.4-1,0.8-1.4,1.2c0,0,0,0,0,0
		c0,0-0.1,0.1-0.1,0.1c0,0,0,0,0,0c-0.3,0.2-0.6,0.5-0.8,0.7c-1.1,0.9-1.2,2.5-0.3,3.5c0.5,0.6,1.2,0.9,1.9,0.9
		c0.6,0,1.1-0.2,1.6-0.6c0.8-0.7,1.6-1.3,2.4-2c1.1-0.9,1.2-2.5,0.3-3.5C252.5,195.2,251.8,194.9,251.1,194.9L251.1,194.9z
		 M237.4,206.7c-0.6,0-1.2,0.2-1.7,0.6c0,0-0.1,0.1-0.1,0.1c0,0,0,0,0,0c0,0,0,0-0.1,0.1c-0.7,0.6-1.4,1.2-2.1,1.9
		c-1,0.9-1.1,2.5-0.1,3.5c0.5,0.5,1.2,0.8,1.8,0.8c0.6,0,1.2-0.2,1.7-0.7c0.8-0.7,1.5-1.4,2.3-2.1c1-0.9,1.1-2.5,0.2-3.5
		C238.8,206.9,238.1,206.7,237.4,206.7L237.4,206.7z M224.4,219c-0.6,0-1.3,0.2-1.8,0.7c0,0-0.1,0.1-0.1,0.1l0,0
		c0,0-0.1,0.1-0.1,0.1c0,0,0,0,0,0c0,0,0,0-0.1,0.1c-0.5,0.5-0.9,0.9-1.4,1.4c0,0,0,0,0,0c0,0,0,0-0.1,0.1c0,0-0.1,0.1-0.1,0.1
		c0,0,0,0,0,0c-0.1,0.1-0.2,0.2-0.3,0.3c-1,1-1,2.6,0,3.5c0.5,0.5,1.1,0.7,1.8,0.7c0.6,0,1.3-0.2,1.8-0.7c0.7-0.7,1.4-1.4,2.2-2.2
		c1-1,1-2.6,0-3.5C225.7,219.3,225,219,224.4,219L224.4,219z M211.9,232c-0.7,0-1.3,0.3-1.8,0.8c-0.3,0.3-0.5,0.6-0.8,0.9l0,0
		c0,0-0.1,0.1-0.1,0.1c0,0,0,0,0,0c0,0-0.1,0.1-0.1,0.1c0,0-0.1,0.1-0.1,0.1c0,0,0,0,0,0c0,0-0.1,0.1-0.1,0.1c0,0,0,0,0,0
		c-0.1,0.1-0.3,0.3-0.4,0.4c0,0,0,0,0,0c0,0-0.1,0.1-0.1,0.1c0,0,0,0-0.1,0.1c0,0,0,0-0.1,0.1c0,0-0.1,0.1-0.1,0.1l0,0
		c0,0-0.1,0.1-0.1,0.1c-0.9,1-0.9,2.6,0.2,3.5c0.5,0.4,1.1,0.6,1.7,0.6c0.7,0,1.4-0.3,1.9-0.8c0.7-0.8,1.4-1.5,2.1-2.3
		c0.9-1,0.9-2.6-0.1-3.5C213.1,232.2,212.5,232,211.9,232L211.9,232z M200,245.5c-0.7,0-1.4,0.3-1.9,0.9c0,0,0,0,0,0
		c-0.3,0.4-0.7,0.8-1,1.2c0,0,0,0,0,0c0,0-0.1,0.1-0.1,0.1c0,0,0,0,0,0c0,0-0.1,0.1-0.1,0.1c0,0-0.1,0.1-0.1,0.1c0,0,0,0,0,0
		c-0.2,0.3-0.4,0.5-0.7,0.8c-0.9,1.1-0.7,2.6,0.3,3.5c0.5,0.4,1,0.6,1.6,0.6c0.7,0,1.4-0.3,1.9-0.9c0.7-0.8,1.3-1.6,2-2.4
		c0.9-1.1,0.8-2.6-0.3-3.5C201.1,245.6,200.6,245.5,200,245.5L200,245.5z M188.7,259.5c-0.8,0-1.5,0.3-2,1l0,0
		c-0.5,0.7-1.1,1.4-1.6,2.2l0,0c-0.1,0.1-0.1,0.2-0.2,0.3l0,0c-0.8,1.1-0.6,2.7,0.5,3.5c0.5,0.3,1,0.5,1.5,0.5c0.8,0,1.5-0.3,2-1
		c0.6-0.8,1.2-1.6,1.9-2.4c0.8-1.1,0.6-2.7-0.5-3.5C189.8,259.6,189.3,259.5,188.7,259.5L188.7,259.5z M178.1,274
		c-0.8,0-1.6,0.4-2,1.1c-0.1,0.2-0.3,0.4-0.4,0.5c0,0,0,0,0,0c0,0-0.1,0.1-0.1,0.1c0,0-0.1,0.1-0.1,0.1c0,0,0,0,0,0
		c0,0-0.1,0.1-0.1,0.1c0,0,0,0,0,0c-0.3,0.4-0.6,0.8-0.9,1.3c0,0,0,0,0,0c0,0-0.1,0.1-0.1,0.1c0,0.1-0.1,0.1-0.1,0.2
		c-0.8,1.1-0.5,2.7,0.7,3.5c0.4,0.3,0.9,0.4,1.4,0.4c0.8,0,1.6-0.4,2.1-1.1c0.6-0.8,1.2-1.7,1.7-2.5c0.8-1.1,0.5-2.7-0.6-3.5
		C179.1,274.1,178.6,274,178.1,274L178.1,274z M168.2,289c-0.8,0-1.6,0.4-2.1,1.2c-0.4,0.7-0.9,1.4-1.3,2.1l0,0c0,0-0.1,0.1-0.1,0.1
		l0,0c0,0.1-0.1,0.1-0.1,0.2c0,0,0,0,0,0.1c0,0,0,0,0,0.1c0,0,0,0,0,0c-0.7,1.2-0.4,2.7,0.8,3.4c0.4,0.3,0.9,0.4,1.3,0.4
		c0.8,0,1.7-0.4,2.1-1.2c0.5-0.9,1.1-1.7,1.6-2.6c0.7-1.2,0.4-2.7-0.8-3.4C169.1,289.1,168.7,289,168.2,289L168.2,289z M159,304.4
		c-0.9,0-1.7,0.5-2.2,1.3c-0.5,0.9-1,1.8-1.5,2.7c-0.7,1.2-0.2,2.7,1,3.4c0.4,0.2,0.8,0.3,1.2,0.3c0.9,0,1.7-0.5,2.2-1.3
		c0.5-0.9,1-1.8,1.5-2.7c0.7-1.2,0.3-2.7-0.9-3.4C159.8,304.5,159.4,304.4,159,304.4L159,304.4z M150.5,320.3
		c-0.9,0-1.8,0.5-2.2,1.4c-0.3,0.7-0.7,1.4-1,2.1c0,0,0,0,0,0.1c0,0,0,0,0,0.1c-0.1,0.2-0.2,0.4-0.3,0.6c-0.6,1.2-0.1,2.7,1.1,3.3
		c0.4,0.2,0.7,0.3,1.1,0.3c0.9,0,1.8-0.5,2.2-1.4c0.5-0.9,0.9-1.8,1.4-2.7c0.6-1.2,0.1-2.7-1.1-3.4
		C151.2,320.4,150.8,320.3,150.5,320.3L150.5,320.3z M142.7,336.5c-0.9,0-1.9,0.5-2.3,1.5c0,0.1-0.1,0.2-0.1,0.2c0,0,0,0.1,0,0.1
		c0,0,0,0,0,0c0,0,0,0.1-0.1,0.1c0,0,0,0,0,0c-0.3,0.6-0.5,1.2-0.8,1.8l0,0c-0.1,0.2-0.2,0.3-0.2,0.5c0,0,0,0,0,0
		c-0.6,1.3,0,2.7,1.3,3.3c0.3,0.1,0.7,0.2,1,0.2c1,0,1.9-0.6,2.3-1.5c0.4-0.9,0.8-1.9,1.2-2.8c0.6-1.3,0-2.7-1.3-3.3
		C143.4,336.6,143,336.5,142.7,336.5L142.7,336.5z M135.7,353c-1,0-1.9,0.6-2.3,1.6c-0.4,1-0.8,1.9-1.1,2.9
		c-0.5,1.3,0.1,2.7,1.4,3.2c0.3,0.1,0.6,0.2,0.9,0.2c1,0,1.9-0.6,2.3-1.6c0.4-1,0.7-1.9,1.1-2.8c0.5-1.3-0.1-2.7-1.4-3.2
		C136.3,353.1,136,353,135.7,353L135.7,353z M129.4,369.9c-1,0-2,0.6-2.4,1.7c-0.2,0.6-0.4,1.2-0.6,1.8c0,0,0,0,0,0.1c0,0,0,0,0,0.1
		c0,0,0,0.1,0,0.1c0,0,0,0,0,0c-0.1,0.3-0.2,0.6-0.3,0.9c-0.4,1.3,0.3,2.7,1.6,3.2c0.3,0.1,0.5,0.1,0.8,0.1c1,0,2-0.7,2.4-1.7
		c0.3-1,0.7-1.9,1-2.9c0.4-1.3-0.2-2.7-1.6-3.2C130,370,129.7,369.9,129.4,369.9L129.4,369.9z M124,387c-1.1,0-2.1,0.7-2.4,1.8
		c0,0.1-0.1,0.2-0.1,0.3c0,0,0,0,0,0.1c0,0,0,0,0,0.1c-0.3,0.9-0.5,1.7-0.7,2.6c-0.4,1.3,0.4,2.7,1.7,3.1c0.2,0.1,0.5,0.1,0.7,0.1
		c1.1,0,2.1-0.7,2.4-1.8c0.3-1,0.6-2,0.8-2.9c0.4-1.3-0.4-2.7-1.7-3.1C124.4,387.1,124.2,387,124,387L124,387z M119.3,404.4
		c-1.1,0-2.1,0.8-2.4,1.9c-0.1,0.2-0.1,0.4-0.2,0.6c0,0,0,0,0,0c0,0.1,0,0.1,0,0.2c0,0,0,0.1,0,0.1c0,0,0,0,0,0.1c0,0,0,0.1,0,0.1
		c0,0,0,0,0,0.1c0,0,0,0.1,0,0.1c0,0,0,0,0,0.1c0,0,0,0.1,0,0.1c0,0,0,0.1,0,0.1c0,0,0,0.1,0,0.1c0,0,0,0.1,0,0.1c0,0,0,0,0,0.1
		c0,0,0,0.1,0,0.1c0,0,0,0,0,0.1c0,0.1-0.1,0.3-0.1,0.4c0,0,0,0,0,0c0,0,0,0.1,0,0.1c0,0,0,0,0,0.1c0,0,0,0.1,0,0.1c0,0,0,0.1,0,0.1
		c0,0,0,0,0,0.1c0,0.1,0,0.1,0,0.2c-0.3,1.3,0.5,2.7,1.9,3c0.2,0,0.4,0.1,0.6,0.1c1.1,0,2.2-0.8,2.4-1.9c0.2-1,0.5-2,0.7-3
		c0.3-1.3-0.5-2.7-1.8-3C119.7,404.4,119.5,404.4,119.3,404.4L119.3,404.4z M115.5,422c-1.2,0-2.2,0.8-2.5,2c0,0.1,0,0.2-0.1,0.4
		c0,0,0,0,0,0c0,0,0,0.1,0,0.1c0,0,0,0.1,0,0.1c0,0,0,0,0,0c-0.1,0.6-0.2,1.2-0.3,1.8c0,0,0,0,0,0.1c0,0,0,0,0,0.1c0,0,0,0.1,0,0.1
		c0,0,0,0,0,0c0,0.1,0,0.3-0.1,0.4c-0.3,1.4,0.6,2.7,2,2.9c0.2,0,0.3,0,0.5,0c1.2,0,2.2-0.8,2.5-2c0.2-1,0.4-2,0.6-3
		c0.3-1.4-0.6-2.7-2-2.9C115.8,422,115.6,422,115.5,422L115.5,422z M112.4,439.7c-1.2,0-2.3,0.9-2.5,2.1c0,0,0,0.1,0,0.1
		c0,0,0,0,0,0c0,0.1,0,0.1,0,0.1c0,0,0,0,0,0c0,0,0,0.1,0,0.1c0,0.1,0,0.1,0,0.2c0,0,0,0,0,0c0,0.1,0,0.1,0,0.2c0,0,0,0,0,0
		c0,0.1,0,0.1,0,0.2l0,0c-0.1,0.7-0.2,1.4-0.3,2.1l0,0c-0.2,1.4,0.8,2.6,2.1,2.8c0.1,0,0.2,0,0.3,0c1.2,0,2.3-0.9,2.5-2.2
		c0.1-1,0.3-2,0.4-3c0.2-1.4-0.7-2.6-2.1-2.8C112.7,439.7,112.5,439.7,112.4,439.7L112.4,439.7z M110.2,457.5c-1.3,0-2.3,1-2.5,2.2
		c0,0.4-0.1,0.7-0.1,1.1c0,0,0,0,0,0c0,0,0,0.1,0,0.1c0,0,0,0.1,0,0.1c0,0,0,0.1,0,0.1c0,0,0,0.1,0,0.1c0,0,0,0.1,0,0.1
		c0,0,0,0.1,0,0.1c0,0,0,0,0,0.1c0,0.1,0,0.1,0,0.2c0,0,0,0,0,0c0,0,0,0.1,0,0.1c0,0,0,0,0,0c0,0.1,0,0.1,0,0.2c0,0,0,0,0,0
		c0,0.3,0,0.5-0.1,0.8c-0.1,1.4,0.9,2.6,2.3,2.7c0.1,0,0.2,0,0.2,0c1.3,0,2.4-1,2.5-2.3c0.1-1,0.2-2,0.3-3c0.1-1.4-0.9-2.6-2.2-2.7
		C110.4,457.6,110.3,457.5,110.2,457.5L110.2,457.5z M108.8,475.5c-1.3,0-2.4,1-2.5,2.4c0,0,0,0,0,0.1c0,0,0,0.1,0,0.1
		c0,0.1,0,0.1,0,0.1c0,0,0,0,0,0c0,0.3,0,0.6,0,0.9c0,0,0,0,0,0c0,0.1,0,0.1,0,0.1c0,0,0,0.1,0,0.1c0,0,0,0,0,0.1c0,0.1,0,0.1,0,0.2
		l0,0c0,0.5,0,0.9-0.1,1.4c-0.1,1.4,1,2.6,2.4,2.6c0,0,0.1,0,0.1,0c1.3,0,2.4-1,2.5-2.4c0-1,0.1-2,0.2-3.1c0.1-1.4-1-2.6-2.4-2.6
		C108.9,475.5,108.8,475.5,108.8,475.5L108.8,475.5z M108.2,493.5c-1.4,0-2.5,1.1-2.5,2.5c0,1,0,2.1,0,3.1c0,1.4,1.1,2.5,2.5,2.5
		c0,0,0,0,0,0c1.4,0,2.5-1.1,2.5-2.5c0-1,0-2,0-3.1C110.7,494.6,109.6,493.5,108.2,493.5C108.2,493.5,108.2,493.5,108.2,493.5
		L108.2,493.5z M108.4,511.4C108.4,511.4,108.4,511.5,108.4,511.4c-1.5,0-2.5,1.2-2.5,2.6c0,0.3,0,0.5,0,0.8c0,0,0,0,0,0.1
		c0,0,0,0.1,0,0.1c0,0,0,0.1,0,0.1c0,0,0,0.1,0,0.1c0,0,0,0.1,0,0.1c0,0,0,0,0,0c0,0.1,0,0.3,0,0.4c0,0,0,0,0,0c0,0.1,0,0.1,0,0.2
		c0,0,0,0,0,0c0,0.2,0,0.4,0,0.6c0,0,0,0,0,0c0,0,0,0.1,0,0.1c0,0,0,0,0,0.1c0,0,0,0.1,0,0.1c0,0,0,0.1,0,0.1c0,0,0,0,0,0.1
		c0,0.1,0,0.1,0,0.2c0.1,1.3,1.2,2.4,2.5,2.4c0,0,0.1,0,0.1,0c1.4-0.1,2.4-1.2,2.4-2.6c0-1-0.1-2-0.1-3.1
		C110.9,512.5,109.8,511.4,108.4,511.4L108.4,511.4z M109.5,529.4c-0.1,0-0.1,0-0.2,0c-1.4,0.1-2.4,1.3-2.3,2.7c0,0.1,0,0.2,0,0.4
		l0,0c0,0,0,0.1,0,0.1c0,0.4,0.1,0.9,0.1,1.3c0,0,0,0,0,0c0,0.1,0,0.1,0,0.1c0,0,0,0,0,0.1c0,0,0,0.1,0,0.1c0,0.1,0,0.1,0,0.2
		c0,0,0,0,0,0c0,0.1,0,0.1,0,0.2c0,0,0,0,0,0c0,0.1,0,0.1,0,0.2l0,0c0,0.1,0,0.3,0,0.4c0.1,1.3,1.2,2.3,2.5,2.3c0.1,0,0.1,0,0.2,0
		c1.4-0.1,2.4-1.3,2.3-2.7c-0.1-1-0.2-2-0.3-3.1C111.8,530.4,110.8,529.4,109.5,529.4L109.5,529.4z M111.3,547.3c-0.1,0-0.2,0-0.3,0
		c-1.4,0.2-2.3,1.4-2.2,2.8c0.1,1,0.3,2.1,0.4,3.1c0.2,1.3,1.2,2.2,2.5,2.2c0.1,0,0.2,0,0.3,0c1.4-0.2,2.3-1.4,2.1-2.8
		c-0.1-1-0.3-2-0.4-3C113.6,548.2,112.6,547.3,111.3,547.3L111.3,547.3z M114,565.1c-0.1,0-0.3,0-0.4,0c-1.4,0.2-2.3,1.5-2,2.9
		c0.1,0.3,0.1,0.6,0.2,0.9c0,0,0,0,0,0c0,0,0,0.1,0,0.1c0,0,0,0,0,0.1c0,0,0,0.1,0,0.1c0,0,0,0.1,0,0.1c0,0,0,0,0,0.1
		c0,0.1,0,0.1,0,0.2c0,0,0,0,0,0c0,0,0,0.1,0,0.1c0,0,0,0,0,0c0,0.1,0,0.1,0,0.2l0,0c0,0.1,0,0.2,0.1,0.4l0,0c0,0.1,0,0.1,0,0.2l0,0
		c0,0.1,0,0.1,0,0.2l0,0c0,0.1,0,0.2,0.1,0.4l0,0c0.2,1.2,1.3,2.1,2.5,2.1c0.1,0,0.3,0,0.5,0c1.4-0.2,2.3-1.5,2-2.9
		c-0.2-1-0.4-2-0.5-3C116.2,565.9,115.2,565.1,114,565.1L114,565.1z M117.5,582.7c-0.2,0-0.4,0-0.5,0.1c-1.3,0.3-2.2,1.6-1.9,3
		c0.2,0.8,0.4,1.6,0.5,2.4c0,0,0,0.1,0,0.1c0,0,0,0,0,0.1c0,0.2,0.1,0.4,0.1,0.5c0.3,1.2,1.3,1.9,2.4,1.9c0.2,0,0.4,0,0.6-0.1
		c1.3-0.3,2.2-1.7,1.9-3c-0.2-1-0.5-2-0.7-3C119.7,583.5,118.6,582.7,117.5,582.7L117.5,582.7z M121.8,600.2c-0.2,0-0.4,0-0.7,0.1
		c-1.3,0.4-2.1,1.7-1.8,3.1c0.1,0.4,0.2,0.9,0.4,1.3c0,0,0,0,0,0.1c0,0,0,0.1,0,0.1c0,0,0,0.1,0,0.1c0,0,0,0,0,0
		c0.1,0.5,0.3,1,0.4,1.4c0.3,1.1,1.3,1.8,2.4,1.8c0.2,0,0.4,0,0.7-0.1c1.3-0.4,2.1-1.8,1.7-3.1c-0.3-1-0.5-2-0.8-3
		C123.9,600.9,122.9,600.2,121.8,600.2L121.8,600.2z M126.9,617.4c-0.3,0-0.5,0-0.8,0.1c-1.3,0.4-2,1.8-1.6,3.1l0,0
		c0.1,0.4,0.2,0.7,0.3,1.1c0,0,0,0,0,0c0,0,0,0.1,0,0.1c0,0,0,0,0,0.1c0,0,0,0,0,0.1c0.2,0.5,0.3,1,0.5,1.6c0.4,1,1.3,1.7,2.4,1.7
		c0.3,0,0.5,0,0.8-0.1c1.3-0.4,2-1.8,1.6-3.2c-0.3-1-0.6-1.9-0.9-2.9C128.9,618.1,127.9,617.4,126.9,617.4L126.9,617.4z
		 M132.8,634.4c-0.3,0-0.6,0.1-0.9,0.2c-1.3,0.5-2,1.9-1.5,3.2c0.2,0.6,0.4,1.2,0.7,1.8c0,0,0,0,0,0.1c0,0,0,0,0,0.1
		c0.1,0.3,0.3,0.7,0.4,1c0.4,1,1.3,1.6,2.3,1.6c0.3,0,0.6-0.1,0.9-0.2c1.3-0.5,1.9-1.9,1.4-3.2c-0.4-1-0.7-1.9-1.1-2.9
		C134.7,635,133.8,634.4,132.8,634.4L132.8,634.4z M139.4,651.1c-0.3,0-0.7,0.1-1,0.2c-1.3,0.5-1.9,2-1.3,3.3c0.4,1,0.8,1.9,1.2,2.9
		c0.4,0.9,1.3,1.5,2.3,1.5c0.3,0,0.7-0.1,1-0.2c1.3-0.6,1.8-2,1.3-3.3c-0.4-0.9-0.8-1.9-1.2-2.8
		C141.3,651.7,140.4,651.1,139.4,651.1L139.4,651.1z M146.9,667.5c-0.4,0-0.7,0.1-1.1,0.2c-1.2,0.6-1.8,2.1-1.2,3.3
		c0.2,0.5,0.4,0.9,0.7,1.4l0,0c0,0,0,0.1,0.1,0.1c0,0,0,0,0,0c0,0,0,0.1,0.1,0.1c0,0,0,0,0,0c0,0.1,0.1,0.1,0.1,0.2c0,0,0,0,0,0.1
		c0,0,0,0.1,0.1,0.1c0,0,0,0,0,0.1c0,0,0,0.1,0,0.1c0,0,0,0,0,0.1c0,0,0,0.1,0,0.1c0,0,0.1,0.1,0.1,0.1c0,0,0,0,0,0.1
		c0,0,0,0.1,0,0.1c0,0,0,0,0,0.1c0,0,0,0,0,0.1c0.4,0.9,1.3,1.4,2.2,1.4c0.4,0,0.7-0.1,1.1-0.3c1.2-0.6,1.7-2.1,1.1-3.3
		c-0.4-0.9-0.9-1.8-1.3-2.8C148.7,668,147.8,667.5,146.9,667.5L146.9,667.5z M155.1,683.5c-0.4,0-0.8,0.1-1.2,0.3
		c-1.2,0.7-1.7,2.2-1,3.4c0.3,0.5,0.5,1,0.8,1.4c0,0,0,0,0,0c0,0.1,0.1,0.1,0.1,0.2c0,0,0,0.1,0.1,0.1c0,0,0,0,0,0
		c0,0,0,0.1,0.1,0.1c0,0,0,0,0,0c0.2,0.3,0.3,0.6,0.5,0.8c0.5,0.8,1.3,1.3,2.2,1.3c0.4,0,0.8-0.1,1.2-0.3c1.2-0.7,1.7-2.2,1-3.4
		c-0.5-0.9-1-1.8-1.5-2.7C156.8,684,155.9,683.5,155.1,683.5L155.1,683.5z M164,699.1c-0.4,0-0.9,0.1-1.3,0.4
		c-1.2,0.7-1.6,2.2-0.9,3.4c0,0.1,0.1,0.2,0.1,0.2c0,0,0,0.1,0.1,0.1c0,0,0,0,0,0c0.5,0.8,0.9,1.5,1.4,2.3c0.5,0.8,1.3,1.2,2.1,1.2
		c0.4,0,0.9-0.1,1.3-0.4c1.2-0.7,1.5-2.3,0.8-3.4c-0.5-0.9-1.1-1.7-1.6-2.6C165.6,699.6,164.8,699.1,164,699.1L164,699.1z
		 M173.6,714.3c-0.5,0-1,0.1-1.4,0.4c-1.1,0.8-1.5,2.3-0.7,3.5c0.2,0.3,0.4,0.6,0.6,1l0,0c0,0,0.1,0.1,0.1,0.1l0,0
		c0.1,0.1,0.1,0.2,0.2,0.3c0,0,0,0,0,0c0,0,0.1,0.1,0.1,0.1c0,0,0,0,0,0c0.2,0.3,0.4,0.6,0.6,1c0.5,0.7,1.3,1.1,2.1,1.1
		c0.5,0,1-0.1,1.4-0.4c1.1-0.8,1.4-2.3,0.7-3.5c-0.6-0.8-1.1-1.7-1.7-2.5C175.2,714.7,174.4,714.3,173.6,714.3L173.6,714.3z
		 M183.9,729.1c-0.5,0-1,0.2-1.5,0.5c-1.1,0.8-1.4,2.4-0.5,3.5c0.6,0.8,1.2,1.7,1.8,2.5c0.5,0.7,1.2,1,2,1c0.5,0,1-0.2,1.5-0.5
		c1.1-0.8,1.3-2.4,0.5-3.5c-0.6-0.8-1.2-1.6-1.8-2.5C185.4,729.4,184.7,729.1,183.9,729.1L183.9,729.1z M194.9,743.3
		c-0.6,0-1.1,0.2-1.6,0.6c-1.1,0.9-1.2,2.4-0.4,3.5c0.7,0.8,1.3,1.6,2,2.4c0.5,0.6,1.2,0.9,1.9,0.9c0.6,0,1.1-0.2,1.6-0.6
		c1.1-0.9,1.2-2.5,0.3-3.5c-0.6-0.8-1.3-1.6-1.9-2.4C196.3,743.6,195.6,743.3,194.9,743.3L194.9,743.3z M206.5,757
		c-0.6,0-1.2,0.2-1.7,0.6c-1,0.9-1.1,2.5-0.2,3.5c0,0,0,0.1,0.1,0.1c0,0,0,0,0,0c0,0,0.1,0.1,0.1,0.1c0.6,0.7,1.3,1.4,1.9,2.1
		c0.5,0.5,1.2,0.8,1.9,0.8c0.6,0,1.2-0.2,1.7-0.6c1-0.9,1.1-2.5,0.2-3.5c-0.7-0.8-1.4-1.5-2-2.3C207.8,757.3,207.2,757,206.5,757
		L206.5,757z M218.7,770.2c-0.6,0-1.3,0.2-1.7,0.7c-1,1-1,2.5-0.1,3.5c0.7,0.7,1.5,1.5,2.2,2.2c0.5,0.5,1.1,0.7,1.8,0.7
		c0.6,0,1.3-0.2,1.8-0.7c1-1,1-2.6,0-3.5c-0.7-0.7-1.4-1.5-2.1-2.2C220,770.5,219.3,770.2,218.7,770.2L218.7,770.2z M231.5,782.9
		c-0.7,0-1.3,0.3-1.8,0.8c-0.9,1-0.9,2.6,0.1,3.5c0,0,0,0,0,0c0,0,0,0,0.1,0.1c0.7,0.7,1.4,1.3,2.2,2c0.5,0.4,1.1,0.7,1.7,0.7
		c0.7,0,1.3-0.3,1.8-0.8c0.9-1,0.9-2.6-0.1-3.5c-0.7-0.7-1.5-1.4-2.2-2.1C232.7,783.1,232.1,782.9,231.5,782.9L231.5,782.9z
		 M244.9,794.9c-0.7,0-1.4,0.3-1.9,0.9c-0.9,1-0.8,2.6,0.3,3.5c0.1,0.1,0.2,0.2,0.3,0.2c0,0,0,0,0.1,0.1c0,0,0,0,0,0
		c0,0,0.1,0.1,0.1,0.1c0,0,0,0,0,0c0.3,0.2,0.6,0.5,0.9,0.8c0,0,0,0,0,0c0,0,0,0,0.1,0.1c0.3,0.2,0.6,0.5,0.9,0.7
		c0.5,0.4,1,0.6,1.6,0.6c0.7,0,1.4-0.3,1.9-0.9c0.9-1.1,0.8-2.6-0.3-3.5c-0.8-0.7-1.6-1.3-2.3-2C246,795.1,245.5,794.9,244.9,794.9
		L244.9,794.9z M258.8,806.3c-0.7,0-1.5,0.3-2,1c-0.8,1.1-0.7,2.7,0.4,3.5c0.2,0.2,0.4,0.4,0.7,0.5c0,0,0,0,0.1,0c0,0,0,0,0.1,0
		c0,0,0.1,0,0.1,0.1c0,0,0,0,0,0c0.5,0.4,1,0.8,1.5,1.2c0.5,0.3,1,0.5,1.5,0.5c0.7,0,1.5-0.3,2-1c0.8-1.1,0.6-2.7-0.5-3.5
		c-0.8-0.6-1.6-1.2-2.4-1.9C259.9,806.5,259.3,806.3,258.8,806.3L258.8,806.3z M273.2,817c-0.8,0-1.6,0.4-2,1.1
		c-0.8,1.1-0.5,2.7,0.6,3.5c0.1,0.1,0.1,0.1,0.2,0.2c0,0,0,0,0,0c0,0,0.1,0,0.1,0.1c0,0,0,0,0,0c0.1,0,0.1,0.1,0.2,0.1
		c0,0,0.1,0,0.1,0.1c0,0,0,0,0.1,0c0,0,0.1,0,0.1,0.1c0,0,0,0,0.1,0c0,0,0.1,0,0.1,0.1c0,0,0.1,0,0.1,0.1c0,0,0.1,0,0.1,0.1
		c0,0,0.1,0,0.1,0.1c0,0,0,0,0.1,0c0,0,0.1,0,0.1,0.1c0,0,0,0,0,0c0.1,0.1,0.2,0.2,0.3,0.2c0,0,0,0,0,0c0.2,0.1,0.4,0.3,0.6,0.4
		c0,0,0,0,0,0c0.1,0.1,0.2,0.1,0.2,0.2c0.4,0.3,0.9,0.4,1.4,0.4c0.8,0,1.6-0.4,2.1-1.1c0.8-1.1,0.5-2.7-0.6-3.5
		c-0.8-0.6-1.7-1.2-2.5-1.8C274.2,817.2,273.7,817,273.2,817L273.2,817z M288.1,827.1c-0.8,0-1.6,0.4-2.1,1.1
		c-0.7,1.2-0.4,2.7,0.7,3.4c0.5,0.3,0.9,0.6,1.4,0.9c0,0,0,0,0,0c0,0,0.1,0,0.1,0.1c0,0,0.1,0.1,0.1,0.1l0,0c0.3,0.2,0.6,0.4,1,0.6
		c0.4,0.3,0.9,0.4,1.3,0.4c0.8,0,1.6-0.4,2.1-1.2c0.7-1.2,0.4-2.7-0.8-3.4c-0.9-0.5-1.7-1.1-2.6-1.6
		C289,827.3,288.6,827.1,288.1,827.1L288.1,827.1z M303.4,836.5c-0.9,0-1.7,0.4-2.2,1.2c-0.7,1.2-0.3,2.7,0.9,3.4
		c0.2,0.1,0.4,0.3,0.7,0.4c0,0,0,0,0.1,0c0,0,0.1,0,0.1,0c0,0,0.1,0,0.1,0.1c0,0,0,0,0,0c0.6,0.3,1.2,0.7,1.8,1
		c0.4,0.2,0.8,0.3,1.2,0.3c0.9,0,1.7-0.5,2.2-1.3c0.7-1.2,0.3-2.7-0.9-3.4c-0.9-0.5-1.8-1-2.7-1.5
		C304.3,836.6,303.9,836.5,303.4,836.5L303.4,836.5z M319.2,845.2c-0.9,0-1.8,0.5-2.2,1.3c-0.6,1.2-0.2,2.7,1.1,3.4
		c0.2,0.1,0.4,0.2,0.7,0.4c0,0,0,0,0,0c0,0,0.1,0.1,0.1,0.1c0,0,0,0,0,0c0.1,0,0.1,0.1,0.2,0.1c0,0,0,0,0.1,0c0,0,0.1,0,0.1,0
		c0,0,0.1,0,0.1,0c0,0,0.1,0,0.1,0c0,0,0.1,0,0.1,0c0,0,0.1,0,0.1,0.1c0,0,0,0,0.1,0c0,0,0.1,0,0.1,0.1c0,0,0,0,0.1,0
		c0,0,0.1,0,0.1,0.1c0,0,0,0,0,0c0.3,0.1,0.6,0.3,0.9,0.4c0.4,0.2,0.8,0.3,1.1,0.3c0.9,0,1.8-0.5,2.2-1.4c0.6-1.2,0.1-2.7-1.1-3.4
		c-0.9-0.5-1.8-0.9-2.7-1.4C320,845.3,319.6,845.2,319.2,845.2L319.2,845.2z M335.3,853.1c-0.9,0-1.8,0.5-2.3,1.4
		c-0.6,1.3,0,2.7,1.2,3.3c0,0,0,0,0,0c0.4,0.2,0.8,0.4,1.2,0.6c0,0,0,0,0,0c0,0,0.1,0,0.1,0.1c0,0,0,0,0,0c0,0,0.1,0,0.1,0.1
		c0,0,0.1,0,0.1,0c0,0,0,0,0,0c0.4,0.2,0.8,0.3,1.1,0.5c0.3,0.1,0.7,0.2,1,0.2c1,0,1.9-0.5,2.3-1.5c0.6-1.3,0-2.7-1.2-3.3
		c-0.9-0.4-1.9-0.8-2.8-1.3C336,853.2,335.7,853.1,335.3,853.1L335.3,853.1z M351.8,860.3c-1,0-1.9,0.6-2.3,1.6
		c-0.5,1.3,0.1,2.7,1.4,3.3c1,0.4,1.9,0.8,2.9,1.2c0.3,0.1,0.6,0.2,0.9,0.2c1,0,1.9-0.6,2.3-1.6c0.5-1.3-0.1-2.7-1.4-3.2
		c-0.9-0.4-1.9-0.8-2.8-1.1C352.4,860.4,352.1,860.3,351.8,860.3L351.8,860.3z M368.6,866.7c-1,0-2,0.6-2.4,1.7
		c-0.5,1.3,0.2,2.7,1.5,3.2c0.4,0.1,0.8,0.3,1.2,0.4c0,0,0,0,0,0c0,0,0.1,0,0.1,0c0,0,0,0,0,0c0,0,0.1,0,0.1,0c0,0,0.1,0,0.1,0
		c0,0,0.1,0,0.1,0c0,0,0.1,0,0.1,0c0,0,0,0,0.1,0c0,0,0.1,0,0.1,0c0,0,0,0,0,0c0.3,0.1,0.6,0.2,0.9,0.3c0.3,0.1,0.5,0.1,0.8,0.1
		c1,0,2-0.6,2.4-1.7c0.5-1.3-0.2-2.7-1.5-3.2c-1-0.3-1.9-0.7-2.9-1C369.2,866.8,368.9,866.7,368.6,866.7L368.6,866.7z M385.7,872.4
		c-1.1,0-2.1,0.7-2.4,1.8c-0.4,1.3,0.3,2.7,1.7,3.1c1,0.3,2,0.6,3,0.9c0.2,0.1,0.5,0.1,0.7,0.1c1.1,0,2.1-0.7,2.4-1.8
		c0.4-1.3-0.4-2.7-1.7-3.1c-1-0.3-2-0.6-2.9-0.9C386.2,872.4,385.9,872.4,385.7,872.4L385.7,872.4z M403,877.2
		c-1.1,0-2.1,0.8-2.4,1.9c-0.3,1.3,0.5,2.7,1.8,3c0.5,0.1,1.1,0.3,1.6,0.4c0,0,0,0,0,0c0,0,0.1,0,0.1,0c0,0,0,0,0,0
		c0.1,0,0.1,0,0.2,0.1c0,0,0.1,0,0.1,0c0,0,0.1,0,0.1,0c0,0,0.1,0,0.1,0c0,0,0,0,0.1,0c0,0,0.1,0,0.1,0c0,0,0,0,0,0
		c0.1,0,0.2,0.1,0.3,0.1c0,0,0,0,0,0c0,0,0.1,0,0.1,0c0,0,0,0,0,0c0.2,0,0.4,0.1,0.6,0.1c1.1,0,2.1-0.8,2.4-1.9
		c0.3-1.3-0.5-2.7-1.8-3c-1-0.2-2-0.5-3-0.7C403.4,877.2,403.2,877.2,403,877.2L403,877.2z M420.5,881.3c-1.2,0-2.2,0.8-2.4,2
		c-0.3,1.4,0.6,2.7,1.9,3c0.2,0,0.4,0.1,0.6,0.1c0,0,0,0,0,0c0,0,0.1,0,0.1,0c0,0,0.1,0,0.1,0c0,0,0,0,0.1,0
		c0.6,0.1,1.1,0.2,1.7,0.3c0,0,0.1,0,0.1,0c0,0,0,0,0.1,0c0.1,0,0.1,0,0.2,0l0,0c0.1,0,0.1,0,0.2,0c0.2,0,0.3,0,0.5,0
		c1.2,0,2.2-0.8,2.4-2c0.3-1.4-0.6-2.7-2-2.9c-1-0.2-2-0.4-3-0.6C420.8,881.3,420.7,881.3,420.5,881.3L420.5,881.3z M438.2,884.5
		c-1.2,0-2.3,0.9-2.5,2.1c-0.2,1.4,0.7,2.6,2.1,2.9c1,0.2,2,0.3,3.1,0.5c0.1,0,0.3,0,0.4,0c1.2,0,2.3-0.9,2.5-2.1
		c0.2-1.4-0.7-2.6-2.1-2.8c-1-0.2-2-0.3-3-0.5C438.5,884.5,438.3,884.5,438.2,884.5L438.2,884.5z M456,886.9c-1.3,0-2.3,0.9-2.5,2.2
		c-0.2,1.4,0.8,2.6,2.2,2.8l0,0c0,0,0.1,0,0.1,0c0,0,0,0,0.1,0c0.1,0,0.1,0,0.2,0c0,0,0,0,0.1,0c0,0,0.1,0,0.1,0c0,0,0.1,0,0.1,0
		c0,0,0.1,0,0.1,0c0,0,0,0,0.1,0c0.1,0,0.1,0,0.2,0l0,0c0.7,0.1,1.4,0.2,2.1,0.2c0.1,0,0.2,0,0.3,0c1.3,0,2.4-1,2.5-2.2
		c0.1-1.4-0.9-2.6-2.2-2.7c-1-0.1-2-0.2-3-0.3C456.2,886.9,456.1,886.9,456,886.9L456,886.9z M473.9,888.5c-1.3,0-2.4,1-2.5,2.3
		c-0.1,1.4,0.9,2.6,2.3,2.7c0.2,0,0.5,0,0.7,0c0,0,0.1,0,0.1,0l0,0c0.6,0,1.1,0.1,1.7,0.1l0,0c0.1,0,0.1,0,0.2,0c0,0,0.1,0,0.1,0
		c0,0,0,0,0.1,0c0.1,0,0.2,0,0.3,0c0,0,0.1,0,0.1,0c1.3,0,2.4-1,2.5-2.4c0.1-1.4-1-2.6-2.4-2.6c-1-0.1-2-0.1-3.1-0.2
		C474.1,888.5,474,888.5,473.9,888.5L473.9,888.5z M491.9,889.2c-1.4,0-2.5,1.1-2.5,2.4c0,1.4,1.1,2.5,2.4,2.5c0.5,0,1,0,1.5,0
		c0,0,0,0,0.1,0c0,0,0.1,0,0.1,0c0,0,0.1,0,0.1,0c0,0,0,0,0,0c0.4,0,0.8,0,1.2,0c0,0,0.1,0,0.1,0l0,0c0,0,0,0,0,0
		c1.4,0,2.5-1.1,2.5-2.5c0-1.4-1.1-2.5-2.5-2.5C494,889.3,493,889.3,491.9,889.2C491.9,889.2,491.9,889.2,491.9,889.2L491.9,889.2z
		 M513,889.1C513,889.1,512.9,889.1,513,889.1c-1.1,0-2.1,0.1-3.1,0.1c-1.4,0-2.5,1.2-2.4,2.6c0,1.4,1.1,2.4,2.5,2.4c0,0,0,0,0,0
		c0.2,0,0.4,0,0.7,0c0,0,0,0,0,0c0,0,0.1,0,0.1,0c0,0,0.1,0,0.1,0c0,0,0,0,0,0c0.7,0,1.4,0,2.1-0.1c1.4,0,2.5-1.2,2.4-2.6
		C515.4,890.2,514.3,889.1,513,889.1L513,889.1z M530.9,888.1c-0.1,0-0.1,0-0.2,0c-1,0.1-2,0.2-3.1,0.2c-1.4,0.1-2.4,1.3-2.3,2.7
		c0.1,1.3,1.2,2.3,2.5,2.3c0.1,0,0.1,0,0.2,0c0.1,0,0.1,0,0.2,0c0,0,0.1,0,0.1,0c0,0,0,0,0.1,0c0.4,0,0.9-0.1,1.3-0.1c0,0,0,0,0.1,0
		c0,0,0.1,0,0.1,0c0,0,0.1,0,0.1,0c0,0,0,0,0,0c0.4,0,0.8-0.1,1.2-0.1c1.4-0.1,2.4-1.3,2.3-2.7C533.3,889.1,532.2,888.1,530.9,888.1
		L530.9,888.1z M548.8,886.3c-0.1,0-0.2,0-0.3,0c-1,0.1-2,0.2-3,0.4c-1.4,0.2-2.4,1.4-2.2,2.8c0.1,1.3,1.2,2.2,2.5,2.2
		c0.1,0,0.2,0,0.3,0c0.6-0.1,1.1-0.1,1.7-0.2c0,0,0,0,0.1,0c0,0,0.1,0,0.1,0c0,0,0,0,0.1,0c0,0,0.1,0,0.1,0c0,0,0,0,0.1,0
		c0,0,0.1,0,0.1,0c0,0,0,0,0,0c0.1,0,0.3,0,0.4-0.1c0,0,0,0,0,0c0.2,0,0.3,0,0.5-0.1c1.4-0.2,2.3-1.4,2.2-2.8
		C551.2,887.2,550.1,886.3,548.8,886.3L548.8,886.3z M566.6,883.7c-0.1,0-0.3,0-0.4,0c-1,0.2-2,0.3-3,0.5c-1.4,0.2-2.3,1.5-2.1,2.9
		c0.2,1.2,1.3,2.1,2.5,2.1c0.1,0,0.3,0,0.4,0c0.4-0.1,0.8-0.1,1.1-0.2l0,0c0.1,0,0.1,0,0.2,0l0,0c0.4-0.1,0.8-0.1,1.1-0.2
		c0,0,0,0,0,0c0,0,0.1,0,0.1,0c0,0,0.1,0,0.1,0c0,0,0,0,0,0c0.1,0,0.2,0,0.3,0c1.4-0.2,2.3-1.5,2-2.9
		C568.9,884.5,567.8,883.7,566.6,883.7L566.6,883.7z M584.3,880.2c-0.2,0-0.4,0-0.5,0.1c-1,0.2-2,0.4-3,0.6c-1.4,0.3-2.2,1.6-1.9,3
		c0.2,1.2,1.3,2,2.4,2c0.2,0,0.3,0,0.5-0.1c0.2,0,0.3-0.1,0.5-0.1c0,0,0,0,0.1,0c0,0,0,0,0.1,0c0,0,0.1,0,0.1,0l0,0
		c0.8-0.2,1.5-0.3,2.3-0.5c1.3-0.3,2.2-1.6,1.9-3C586.5,881,585.4,880.2,584.3,880.2L584.3,880.2z M601.8,876c-0.2,0-0.4,0-0.6,0.1
		c-1,0.3-2,0.5-3,0.8c-1.3,0.3-2.1,1.7-1.8,3c0.3,1.1,1.3,1.9,2.4,1.9c0.2,0,0.4,0,0.6-0.1c0.3-0.1,0.7-0.2,1-0.3c0,0,0.1,0,0.1,0
		c0,0,0,0,0.1,0c0.6-0.2,1.2-0.3,1.8-0.5c1.3-0.4,2.1-1.7,1.8-3.1C603.9,876.7,602.9,876,601.8,876L601.8,876z M619,870.9
		c-0.3,0-0.5,0-0.8,0.1c-1,0.3-1.9,0.6-2.9,0.9c-1.3,0.4-2.1,1.8-1.6,3.1c0.3,1.1,1.3,1.8,2.4,1.8c0.2,0,0.5,0,0.7-0.1
		c0.1,0,0.2-0.1,0.3-0.1c0,0,0.1,0,0.1,0c0,0,0,0,0,0c0.6-0.2,1.2-0.4,1.9-0.6c0,0,0,0,0,0c0,0,0.1,0,0.1,0c0,0,0.1,0,0.1,0
		c0,0,0,0,0.1,0c0.1,0,0.2-0.1,0.4-0.1c1.3-0.4,2-1.8,1.6-3.1C621.1,871.6,620.1,870.9,619,870.9L619,870.9z M636,865.1
		c-0.3,0-0.6,0.1-0.9,0.2c-1,0.4-1.9,0.7-2.9,1.1c-1.3,0.5-2,1.9-1.5,3.2c0.4,1,1.3,1.7,2.4,1.7c0.3,0,0.6,0,0.8-0.1
		c1-0.4,1.9-0.7,2.9-1.1c1.3-0.5,2-1.9,1.5-3.2C638,865.7,637,865.1,636,865.1L636,865.1z M652.7,858.4c-0.3,0-0.7,0.1-1,0.2
		c-0.9,0.4-1.9,0.8-2.8,1.2c-1.3,0.5-1.9,2-1.4,3.3c0.4,1,1.3,1.5,2.3,1.5c0.3,0,0.6-0.1,0.9-0.2c0.3-0.1,0.7-0.3,1-0.4c0,0,0,0,0,0
		c0.1-0.1,0.3-0.1,0.4-0.2c0,0,0,0,0,0c0,0,0.1,0,0.1,0c0,0,0,0,0.1,0c0,0,0.1,0,0.1,0c0,0,0.1,0,0.1,0c0,0,0.1,0,0.1,0
		c0,0,0.1,0,0.1-0.1c0,0,0,0,0.1,0c0,0,0.1,0,0.1,0c0,0,0,0,0.1,0c0,0,0.1,0,0.1,0c0,0,0,0,0.1,0c0,0,0.1,0,0.1-0.1c0,0,0,0,0.1,0
		c0,0,0.1,0,0.1-0.1c0,0,0,0,0.1,0c0,0,0.1,0,0.1,0c0,0,0,0,0,0c1.3-0.5,1.9-2,1.3-3.3C654.6,859,653.7,858.4,652.7,858.4
		L652.7,858.4z M669.1,851c-0.4,0-0.7,0.1-1.1,0.2c-0.9,0.4-1.8,0.9-2.8,1.3c-1.2,0.6-1.8,2.1-1.2,3.3c0.4,0.9,1.3,1.4,2.3,1.4
		c0.4,0,0.7-0.1,1-0.2c0.1-0.1,0.3-0.1,0.4-0.2c0,0,0,0,0,0c0,0,0.1,0,0.1,0c0,0,0.1,0,0.1-0.1c0,0,0,0,0,0c0.3-0.1,0.6-0.3,0.9-0.4
		c0,0,0,0,0.1,0c0,0,0.1,0,0.1,0c0,0,0.1,0,0.1,0c0,0,0,0,0,0c0.3-0.2,0.7-0.3,1-0.5c1.2-0.6,1.8-2.1,1.2-3.3
		C670.9,851.6,670.1,851,669.1,851L669.1,851z M685.2,842.9c-0.4,0-0.8,0.1-1.2,0.3c-0.9,0.5-1.8,1-2.7,1.4c-1.2,0.6-1.7,2.2-1,3.4
		c0.4,0.8,1.3,1.3,2.2,1.3c0.4,0,0.8-0.1,1.2-0.3c0,0,0,0,0,0c0.1,0,0.1-0.1,0.2-0.1c0,0,0,0,0,0c0,0,0.1,0,0.1-0.1c0,0,0,0,0,0
		c0,0,0.1,0,0.1-0.1c0,0,0,0,0,0c0.1,0,0.1-0.1,0.2-0.1c0,0,0,0,0,0c0,0,0.1,0,0.1-0.1c0,0,0,0,0.1,0c0,0,0.1,0,0.1,0c0,0,0,0,0.1,0
		c0,0,0.1,0,0.1,0c0.1,0,0.1-0.1,0.2-0.1c0,0,0,0,0,0c0,0,0.1,0,0.1-0.1c0,0,0,0,0,0c0,0,0.1,0,0.1-0.1c0,0,0,0,0,0
		c0.2-0.1,0.3-0.2,0.5-0.3l0,0c0.1-0.1,0.2-0.1,0.4-0.2c0,0,0,0,0,0c0,0,0.1,0,0.1-0.1c0,0,0,0,0.1,0c0,0,0,0,0.1,0
		c1.2-0.7,1.7-2.2,1-3.4C686.9,843.4,686,842.9,685.2,842.9L685.2,842.9z M700.8,834c-0.4,0-0.9,0.1-1.3,0.4c-0.9,0.5-1.8,1-2.6,1.6
		c-1.2,0.7-1.6,2.2-0.9,3.4c0.5,0.8,1.3,1.2,2.2,1.2c0.4,0,0.9-0.1,1.3-0.3c0.4-0.2,0.8-0.5,1.2-0.7l0,0c0.1,0,0.1-0.1,0.2-0.1l0,0
		c0.1-0.1,0.2-0.1,0.3-0.2c0,0,0,0,0,0c0.3-0.2,0.7-0.4,1-0.6c1.2-0.7,1.6-2.2,0.9-3.4C702.5,834.5,701.6,834,700.8,834L700.8,834z
		 M716,824.4c-0.5,0-1,0.1-1.4,0.4c-0.9,0.6-1.7,1.1-2.6,1.7c-1.2,0.8-1.5,2.3-0.7,3.5c0.5,0.7,1.3,1.1,2.1,1.1
		c0.5,0,0.9-0.1,1.4-0.4c0.2-0.1,0.3-0.2,0.5-0.3c0,0,0.1,0,0.1-0.1c0,0,0,0,0,0c0.7-0.4,1.3-0.9,2-1.3c1.1-0.8,1.5-2.3,0.7-3.5
		C717.6,824.8,716.8,824.4,716,824.4L716,824.4z M730.8,814.2c-0.5,0-1,0.2-1.5,0.5c-0.8,0.6-1.7,1.2-2.5,1.8
		c-1.1,0.8-1.4,2.4-0.6,3.5c0.5,0.7,1.3,1,2,1c0.5,0,1-0.2,1.5-0.5c0.2-0.1,0.3-0.2,0.5-0.3c0,0,0,0,0.1-0.1c0,0,0,0,0,0
		c0.7-0.5,1.3-0.9,1.9-1.4c1.1-0.8,1.3-2.4,0.5-3.5C732.3,814.5,731.5,814.2,730.8,814.2L730.8,814.2z M745.1,803.2
		c-0.5,0-1.1,0.2-1.6,0.6c-0.8,0.6-1.6,1.3-2.4,1.9c-1.1,0.9-1.3,2.4-0.4,3.5c0.5,0.6,1.2,1,2,1c0.5,0,1.1-0.2,1.5-0.5
		c0.2-0.1,0.3-0.2,0.5-0.4l0,0c0,0,0.1-0.1,0.1-0.1c0,0,0,0,0,0c0,0,0.1,0,0.1-0.1c0.4-0.3,0.9-0.7,1.3-1c0,0,0.1,0,0.1-0.1
		c0,0,0,0,0,0c0.1-0.1,0.2-0.2,0.3-0.2c1.1-0.9,1.2-2.4,0.4-3.5C746.5,803.6,745.8,803.2,745.1,803.2L745.1,803.2z M758.8,791.7
		c-0.6,0-1.2,0.2-1.7,0.6c-0.8,0.7-1.5,1.3-2.3,2c-1,0.9-1.2,2.5-0.3,3.5c0.5,0.6,1.2,0.9,1.9,0.9c0.6,0,1.2-0.2,1.6-0.6
		c0.4-0.3,0.8-0.7,1.2-1c0,0,0,0,0,0c0,0,0.1-0.1,0.1-0.1c0,0,0,0,0,0c0,0,0.1-0.1,0.1-0.1c0,0,0,0,0,0c0,0,0.1-0.1,0.1-0.1
		c0,0,0,0,0.1,0c0,0,0,0,0.1-0.1c0,0,0,0,0.1-0.1c0,0,0,0,0.1,0c0.1-0.1,0.2-0.2,0.3-0.3c0,0,0,0,0,0c0.1-0.1,0.1-0.1,0.2-0.2
		c1-0.9,1.1-2.5,0.2-3.5C760.2,792,759.5,791.7,758.8,791.7L758.8,791.7z M772,779.5c-0.6,0-1.3,0.2-1.7,0.7
		c-0.7,0.7-1.5,1.4-2.2,2.1c-1,1-1,2.5-0.1,3.5c0.5,0.5,1.2,0.8,1.8,0.8c0.6,0,1.2-0.2,1.7-0.7c0.2-0.2,0.3-0.3,0.5-0.5c0,0,0,0,0,0
		c0,0,0.1,0,0.1-0.1c0,0,0,0,0,0c0,0,0,0,0.1-0.1c0,0,0.1-0.1,0.1-0.1c0,0,0,0,0,0c0,0,0.1-0.1,0.1-0.1c0,0,0,0,0,0
		c0.4-0.4,0.8-0.8,1.2-1.2c1-1,1-2.5,0.1-3.5C773.4,779.7,772.7,779.5,772,779.5L772,779.5z M784.7,766.7c-0.7,0-1.3,0.3-1.8,0.8
		c-0.7,0.7-1.4,1.5-2.1,2.2c-1,1-0.9,2.6,0.1,3.5c0.5,0.5,1.1,0.7,1.7,0.7c0.7,0,1.3-0.3,1.8-0.8l0,0c0,0,0.1-0.1,0.1-0.1l0,0
		c0,0,0.1-0.1,0.1-0.1c0,0,0,0,0,0c0,0,0.1-0.1,0.1-0.1c0,0,0,0,0,0c0,0,0.1-0.1,0.1-0.1c0,0,0,0,0,0c0,0,0.1-0.1,0.1-0.1
		c0,0,0,0,0-0.1c0,0,0,0,0.1-0.1c0,0,0,0,0.1-0.1c0,0,0,0,0.1-0.1c0.1-0.1,0.2-0.2,0.2-0.3c0,0,0,0,0,0c0,0,0,0,0.1-0.1c0,0,0,0,0,0
		c0.1-0.1,0.2-0.2,0.3-0.3c0,0,0,0,0,0c0,0,0.1-0.1,0.1-0.1c0,0,0,0,0,0c0,0,0.1-0.1,0.1-0.1c0,0,0,0,0-0.1c0,0,0.1-0.1,0.1-0.1
		c0,0,0.1-0.1,0.1-0.1c0,0,0,0,0,0c0,0,0.1-0.1,0.1-0.1c0,0,0,0,0,0c0.9-1,0.9-2.6-0.1-3.5C785.9,766.9,785.3,766.7,784.7,766.7
		L784.7,766.7z M796.8,753.4c-0.7,0-1.4,0.3-1.9,0.9c-0.7,0.8-1.3,1.5-2,2.3c-0.9,1-0.8,2.6,0.2,3.5c0.5,0.4,1.1,0.6,1.6,0.6
		c0.7,0,1.4-0.3,1.9-0.9c0,0,0.1-0.1,0.1-0.1c0,0,0,0,0,0c0,0,0.1-0.1,0.1-0.1c0,0,0,0,0-0.1c0,0,0,0,0.1-0.1
		c0.1-0.1,0.2-0.2,0.2-0.3c0,0,0,0,0,0c0.3-0.3,0.5-0.6,0.8-0.9c0,0,0,0,0,0c0,0,0.1-0.1,0.1-0.1c0,0,0,0,0,0
		c0.1-0.1,0.2-0.2,0.3-0.3c0,0,0,0,0,0c0,0,0.1-0.1,0.1-0.1c0,0,0,0,0,0c0.1-0.1,0.1-0.1,0.2-0.2c0.9-1,0.8-2.6-0.3-3.5
		C797.9,753.6,797.3,753.4,796.8,753.4L796.8,753.4z M808.2,739.5c-0.7,0-1.5,0.3-2,1c-0.6,0.8-1.3,1.6-1.9,2.4
		c-0.9,1.1-0.7,2.7,0.4,3.5c0.5,0.4,1,0.5,1.6,0.5c0.7,0,1.5-0.3,1.9-0.9c0.6-0.7,1.2-1.4,1.7-2.2c0,0,0.1-0.1,0.1-0.1l0,0
		c0,0,0.1-0.1,0.1-0.1c0.9-1.1,0.7-2.7-0.4-3.5C809.3,739.6,808.7,739.5,808.2,739.5L808.2,739.5z M819,725.1c-0.8,0-1.5,0.4-2,1
		c-0.6,0.8-1.2,1.7-1.8,2.5c-0.8,1.1-0.6,2.7,0.6,3.5c0.4,0.3,1,0.5,1.5,0.5c0.8,0,1.5-0.4,2-1c0.2-0.3,0.4-0.5,0.6-0.8c0,0,0,0,0,0
		c0,0,0,0,0-0.1c0,0,0-0.1,0.1-0.1c0,0,0,0,0,0c0.3-0.5,0.7-0.9,1-1.4l0,0c0,0,0.1-0.1,0.1-0.1c0,0,0,0,0,0c0.8-1.1,0.5-2.7-0.6-3.5
		C820,725.2,819.5,725.1,819,725.1L819,725.1z M829.1,710.2c-0.8,0-1.6,0.4-2.1,1.1c-0.6,0.9-1.1,1.7-1.7,2.6
		c-0.8,1.2-0.4,2.7,0.7,3.5c0.4,0.3,0.9,0.4,1.4,0.4c0.8,0,1.6-0.4,2.1-1.1c0.2-0.3,0.4-0.6,0.6-0.9c0,0,0,0,0,0c0,0,0-0.1,0.1-0.1
		c0,0,0,0,0,0c0.1-0.1,0.1-0.2,0.2-0.3c0,0,0,0,0,0c0,0,0-0.1,0.1-0.1c0,0,0,0,0,0c0,0,0-0.1,0.1-0.1c0,0,0,0,0-0.1
		c0,0,0.1-0.1,0.1-0.1c0,0,0-0.1,0.1-0.1c0,0,0,0,0-0.1c0,0,0.1-0.1,0.1-0.1c0,0,0,0,0,0c0.1-0.2,0.2-0.3,0.3-0.5
		c0.8-1.2,0.4-2.7-0.7-3.5C830,710.3,829.6,710.2,829.1,710.2L829.1,710.2z M838.5,694.9c-0.9,0-1.7,0.4-2.2,1.2
		c-0.5,0.9-1,1.8-1.6,2.6c-0.7,1.2-0.3,2.7,0.9,3.4c0.4,0.2,0.8,0.4,1.3,0.4c0.8,0,1.7-0.4,2.1-1.2c0.2-0.3,0.4-0.6,0.5-0.9
		c0,0,0-0.1,0.1-0.1c0,0,0,0,0-0.1c0,0,0-0.1,0.1-0.1c0,0,0,0,0,0c0.1-0.1,0.1-0.2,0.2-0.3l0,0c0-0.1,0.1-0.1,0.1-0.2l0,0
		c0.2-0.3,0.4-0.7,0.6-1c0.7-1.2,0.3-2.7-0.9-3.4C839.4,695,839,694.9,838.5,694.9L838.5,694.9z M847.2,679.2
		c-0.9,0-1.8,0.5-2.2,1.3c-0.5,0.9-1,1.8-1.4,2.7c-0.7,1.2-0.2,2.7,1,3.4c0.4,0.2,0.8,0.3,1.2,0.3c0.9,0,1.8-0.5,2.2-1.3
		c0.5-0.9,1-1.8,1.5-2.7c0.6-1.2,0.2-2.7-1.1-3.4C848,679.3,847.6,679.2,847.2,679.2L847.2,679.2z M855.2,663.1
		c-0.9,0-1.8,0.5-2.3,1.4c-0.4,0.9-0.9,1.8-1.3,2.8c-0.6,1.2-0.1,2.7,1.2,3.3c0.3,0.2,0.7,0.2,1.1,0.2c0.9,0,1.8-0.5,2.3-1.4
		c0.1-0.1,0.1-0.3,0.2-0.4c0,0,0-0.1,0.1-0.1c0,0,0,0,0,0c0-0.1,0-0.1,0.1-0.2l0,0c0.2-0.3,0.3-0.7,0.5-1l0,0c0-0.1,0.1-0.1,0.1-0.2
		c0,0,0,0,0,0c0.1-0.3,0.3-0.6,0.4-0.9c0.6-1.3,0-2.7-1.2-3.3C855.9,663.1,855.6,663.1,855.2,663.1L855.2,663.1z M862.5,646.6
		c-1,0-1.9,0.6-2.3,1.5c-0.4,0.9-0.8,1.9-1.2,2.8c-0.5,1.3,0.1,2.7,1.3,3.3c0.3,0.1,0.6,0.2,1,0.2c1,0,1.9-0.6,2.3-1.5
		c0.2-0.4,0.3-0.8,0.5-1.2c0,0,0,0,0,0c0,0,0-0.1,0-0.1c0,0,0-0.1,0-0.1c0,0,0-0.1,0-0.1c0,0,0-0.1,0-0.1c0,0,0,0,0-0.1
		c0-0.1,0-0.1,0.1-0.2c0,0,0,0,0-0.1c0,0,0-0.1,0-0.1c0,0,0,0,0-0.1c0,0,0-0.1,0-0.1c0,0,0-0.1,0-0.1c0,0,0-0.1,0.1-0.1c0,0,0,0,0,0
		c0,0,0-0.1,0.1-0.1c0,0,0,0,0,0c0,0,0-0.1,0.1-0.1c0,0,0,0,0,0c0-0.1,0-0.1,0.1-0.2c0.5-1.3-0.1-2.7-1.4-3.3
		C863.1,646.7,862.8,646.6,862.5,646.6L862.5,646.6z M868.9,629.8c-1,0-2,0.6-2.4,1.7c-0.3,1-0.7,1.9-1,2.9
		c-0.5,1.3,0.2,2.7,1.5,3.2c0.3,0.1,0.6,0.2,0.9,0.2c1,0,2-0.6,2.3-1.6c0.3-0.9,0.7-1.8,1-2.7c0,0,0,0,0,0c0,0,0-0.1,0-0.1
		c0,0,0-0.1,0-0.1c0.5-1.3-0.2-2.7-1.5-3.2C869.5,629.9,869.2,629.8,868.9,629.8L868.9,629.8z M874.6,612.7c-1.1,0-2.1,0.7-2.4,1.8
		c-0.3,1-0.6,2-0.9,2.9c-0.4,1.3,0.3,2.7,1.6,3.1c0.3,0.1,0.5,0.1,0.8,0.1c1.1,0,2-0.7,2.4-1.7c0.1-0.4,0.3-0.8,0.4-1.2c0,0,0,0,0,0
		c0,0,0-0.1,0-0.1c0,0,0-0.1,0-0.1c0,0,0,0,0-0.1c0.2-0.5,0.3-1,0.5-1.5c0.4-1.3-0.3-2.7-1.7-3.1
		C875.1,612.8,874.8,612.7,874.6,612.7L874.6,612.7z M879.5,595.4c-1.1,0-2.1,0.7-2.4,1.9c-0.3,1-0.5,2-0.8,3
		c-0.4,1.3,0.4,2.7,1.8,3.1c0.2,0.1,0.4,0.1,0.6,0.1c1.1,0,2.1-0.7,2.4-1.9c0,0,0,0,0,0c0,0,0,0,0-0.1c0,0,0-0.1,0-0.1c0,0,0,0,0,0
		c0-0.1,0-0.1,0-0.2c0,0,0-0.1,0-0.1c0,0,0-0.1,0-0.1c0,0,0-0.1,0-0.1c0,0,0,0,0-0.1c0,0,0-0.1,0-0.1c0,0,0,0,0,0c0-0.1,0-0.1,0-0.2
		l0,0c0-0.1,0-0.1,0-0.2l0,0c0.1-0.2,0.1-0.5,0.2-0.7c0,0,0,0,0,0c0,0,0-0.1,0-0.1c0,0,0,0,0-0.1c0,0,0,0,0-0.1
		c0.1-0.2,0.1-0.5,0.2-0.7c0.3-1.3-0.5-2.7-1.8-3C879.9,595.5,879.7,595.4,879.5,595.4L879.5,595.4z M883.6,577.9
		c-1.2,0-2.2,0.8-2.4,2c-0.2,1-0.4,2-0.6,3c-0.3,1.3,0.6,2.7,1.9,3c0.2,0,0.4,0.1,0.5,0.1c1.2,0,2.2-0.8,2.4-2
		c0.1-0.5,0.2-1,0.3-1.5c0,0,0,0,0,0c0,0,0,0,0-0.1c0,0,0-0.1,0-0.1c0,0,0,0,0,0c0-0.1,0-0.1,0-0.2l0,0c0.1-0.4,0.2-0.8,0.2-1.1
		c0.3-1.4-0.6-2.7-1.9-3C883.9,577.9,883.7,577.9,883.6,577.9L883.6,577.9z M886.8,560.2c-1.2,0-2.3,0.9-2.5,2.1c-0.2,1-0.3,2-0.5,3
		c-0.2,1.4,0.7,2.7,2,2.9c0.1,0,0.3,0,0.4,0c1.2,0,2.3-0.9,2.5-2.1c0.1-0.7,0.2-1.3,0.3-2c0,0,0,0,0,0c0,0,0-0.1,0-0.1
		c0,0,0,0,0-0.1c0,0,0-0.1,0-0.1c0-0.2,0.1-0.5,0.1-0.7c0.2-1.4-0.7-2.6-2.1-2.9C887.1,560.3,887,560.2,886.8,560.2L886.8,560.2z
		 M889.3,542.4c-1.3,0-2.3,0.9-2.5,2.2c-0.1,1-0.2,2-0.4,3c-0.2,1.4,0.8,2.6,2.2,2.8c0.1,0,0.2,0,0.3,0c1.2,0,2.3-0.9,2.5-2.2
		c0,0,0,0,0-0.1c0,0,0,0,0,0c0-0.3,0.1-0.5,0.1-0.8c0,0,0,0,0,0c0-0.1,0-0.3,0-0.4c0,0,0-0.1,0-0.1c0,0,0,0,0-0.1c0,0,0-0.1,0-0.1
		c0,0,0,0,0,0c0.1-0.5,0.1-1,0.2-1.5c0.2-1.4-0.8-2.6-2.2-2.8C889.5,542.4,889.4,542.4,889.3,542.4L889.3,542.4z M890.9,524.5
		c-1.3,0-2.4,1-2.5,2.3c-0.1,1-0.1,2-0.2,3.1c-0.1,1.4,0.9,2.6,2.3,2.7c0.1,0,0.1,0,0.2,0c1.3,0,2.4-1,2.5-2.3
		c0.1-1,0.2-2.1,0.2-3.1c0.1-1.4-1-2.6-2.3-2.7C891,524.5,891,524.5,890.9,524.5L890.9,524.5z M891.7,506.5c-1.4,0-2.5,1.1-2.5,2.4
		c0,1-0.1,2-0.1,3.1c0,1.4,1,2.5,2.4,2.6c0,0,0.1,0,0.1,0c1.3,0,2.5-1.1,2.5-2.4c0,0,0-0.1,0-0.1c0,0,0,0,0,0c0-0.4,0-0.7,0-1.1
		c0,0,0,0,0,0c0-0.1,0-0.1,0-0.1c0,0,0-0.1,0-0.1c0,0,0,0,0,0c0-0.5,0-1,0-1.5C894.2,507.7,893.2,506.6,891.7,506.5
		C891.8,506.5,891.7,506.5,891.7,506.5L891.7,506.5z M891.7,488.6C891.7,488.6,891.7,488.6,891.7,488.6c-1.4,0-2.5,1.2-2.5,2.6
		c0,1,0,2,0.1,3.1c0,1.4,1.1,2.5,2.5,2.5c0,0,0,0,0,0c1.4,0,2.5-1.2,2.5-2.5c0,0,0-0.1,0-0.1c0,0,0-0.1,0-0.1c0,0,0,0,0-0.1
		c0-1,0-1.9-0.1-2.9C894.2,489.6,893.1,488.6,891.7,488.6L891.7,488.6z M890.9,470.6c-0.1,0-0.1,0-0.2,0c-1.4,0.1-2.4,1.3-2.3,2.7
		c0.1,1,0.1,2,0.2,3.1c0.1,1.3,1.2,2.4,2.5,2.4c0.1,0,0.1,0,0.2,0c1.4-0.1,2.4-1.3,2.3-2.6c0-0.3,0-0.6-0.1-0.9c0,0,0,0,0,0
		c0-0.1,0-0.1,0-0.1c0,0,0-0.1,0-0.1c0,0,0,0,0,0c0-0.6-0.1-1.3-0.1-1.9C893.3,471.6,892.2,470.6,890.9,470.6L890.9,470.6z
		 M889.3,452.7c-0.1,0-0.2,0-0.3,0c-1.4,0.2-2.4,1.4-2.2,2.8c0.1,1,0.2,2,0.3,3c0.1,1.3,1.2,2.2,2.5,2.2c0.1,0,0.2,0,0.3,0
		c1.4-0.1,2.4-1.4,2.2-2.7c-0.1-1-0.2-2.1-0.3-3.1C891.6,453.6,890.5,452.7,889.3,452.7L889.3,452.7z M886.8,434.9
		c-0.1,0-0.3,0-0.4,0c-1.4,0.2-2.3,1.5-2.1,2.9c0.2,1,0.3,2,0.5,3c0.2,1.2,1.3,2.1,2.5,2.1c0.1,0,0.3,0,0.4,0
		c1.4-0.2,2.3-1.5,2.1-2.8c0-0.2-0.1-0.5-0.1-0.7c0,0,0,0,0,0c0-0.1,0-0.1,0-0.1c0,0,0,0,0,0c0,0,0-0.1,0-0.1c0,0,0,0,0,0
		c0-0.1,0-0.2,0-0.3c0,0,0,0,0,0c0-0.1,0-0.1,0-0.1c0,0,0,0,0,0c0-0.1,0-0.1,0-0.1c0,0,0,0,0,0c-0.1-0.5-0.2-1-0.2-1.5
		C889.1,435.7,888,434.9,886.8,434.9L886.8,434.9z M883.6,417.2c-0.2,0-0.3,0-0.5,0.1c-1.4,0.3-2.2,1.6-1.9,3c0.2,1,0.4,2,0.6,3
		c0.2,1.2,1.3,2,2.4,2c0.2,0,0.3,0,0.5,0c1.4-0.3,2.2-1.6,2-2.9l0,0c0-0.1,0-0.1,0-0.2l0,0c-0.1-0.3-0.1-0.6-0.2-0.9l0,0
		c0-0.1,0-0.1,0-0.2l0,0c0-0.1,0-0.2-0.1-0.4c0,0,0,0,0-0.1c0,0,0,0,0-0.1c0,0,0-0.1,0-0.1c0,0,0,0,0,0c0-0.2-0.1-0.4-0.1-0.6
		c0,0,0,0,0,0c0-0.1,0-0.1,0-0.1c0,0,0,0,0,0c0-0.1,0-0.1,0-0.2c0,0,0-0.1,0-0.1c0,0,0,0,0,0C885.8,418,884.7,417.2,883.6,417.2
		L883.6,417.2z M879.5,399.7c-0.2,0-0.4,0-0.6,0.1c-1.3,0.3-2.1,1.7-1.8,3c0.3,1,0.5,2,0.8,3c0.3,1.1,1.3,1.9,2.4,1.9
		c0.2,0,0.4,0,0.6-0.1c1.3-0.3,2.2-1.7,1.8-3c0,0,0,0,0,0c0,0,0-0.1,0-0.1c0,0,0-0.1,0-0.1c0,0,0-0.1,0-0.1c0,0,0-0.1,0-0.1
		c0,0,0-0.1,0-0.1c0,0,0-0.1,0-0.1c0,0,0-0.1,0-0.1c0,0,0-0.1,0-0.1c0,0,0-0.1,0-0.1c0,0,0-0.1,0-0.1c0,0,0-0.1,0-0.1c0,0,0,0,0-0.1
		c0-0.1,0-0.1,0-0.2l0,0c0-0.1,0-0.1,0-0.2c0,0,0,0,0-0.1c0,0,0-0.1,0-0.1c0,0,0,0,0-0.1c0,0,0-0.1,0-0.1c0,0,0,0,0,0
		c0-0.1,0-0.1,0-0.2c0,0,0,0,0,0c0,0,0-0.1,0-0.1c0,0,0-0.1,0-0.1c0,0,0-0.1,0-0.1c0,0,0-0.1,0-0.1c0,0,0,0,0-0.1
		c0-0.2-0.1-0.3-0.1-0.5C881.6,400.4,880.6,399.7,879.5,399.7L879.5,399.7z M874.6,382.3c-0.2,0-0.5,0-0.7,0.1
		c-1.3,0.4-2.1,1.8-1.7,3.1c0.3,1,0.6,2,0.9,2.9c0.3,1.1,1.3,1.8,2.4,1.8c0.2,0,0.5,0,0.7-0.1c1.3-0.4,2.1-1.8,1.7-3.1
		c-0.3-1-0.6-2-0.9-3C876.7,383,875.7,382.3,874.6,382.3L874.6,382.3z M869,365.3c-0.3,0-0.6,0-0.8,0.1c-1.3,0.5-2,1.9-1.5,3.2
		c0.3,1,0.7,1.9,1,2.9c0.4,1,1.3,1.7,2.4,1.7c0.3,0,0.6,0,0.8-0.1c1.3-0.5,2-1.9,1.5-3.2c-0.1-0.2-0.1-0.3-0.2-0.5c0,0,0,0,0,0
		c0,0,0-0.1,0-0.1c0,0,0-0.1,0-0.1c0,0,0,0,0-0.1c0-0.1-0.1-0.2-0.1-0.3c0,0,0,0,0,0c0,0,0-0.1,0-0.1c0,0,0,0,0,0
		c0-0.1-0.1-0.2-0.1-0.3c0,0,0,0,0,0c0,0,0-0.1,0-0.1c0,0,0,0,0,0c0-0.1,0-0.1-0.1-0.2l0,0c-0.1-0.3-0.2-0.6-0.3-0.9
		C870.9,365.9,870,365.3,869,365.3L869,365.3z M862.5,348.5c-0.3,0-0.6,0.1-1,0.2c-1.3,0.5-1.9,2-1.4,3.3c0.4,0.9,0.8,1.9,1.2,2.8
		c0.4,1,1.3,1.6,2.3,1.6c0.3,0,0.6-0.1,0.9-0.2c1.3-0.5,1.9-2,1.4-3.3c0-0.1-0.1-0.2-0.1-0.3c0,0,0,0,0-0.1c0,0,0,0,0-0.1
		c-0.2-0.6-0.5-1.2-0.7-1.8c0,0,0,0,0,0c0,0,0-0.1,0-0.1c-0.1-0.2-0.1-0.3-0.2-0.5C864.4,349.1,863.5,348.5,862.5,348.5L862.5,348.5
		z M855.3,332c-0.4,0-0.7,0.1-1.1,0.2c-1.3,0.6-1.8,2.1-1.2,3.3c0.4,0.9,0.9,1.8,1.3,2.8c0.4,0.9,1.3,1.5,2.3,1.5
		c0.3,0,0.7-0.1,1-0.2c1.3-0.6,1.8-2.1,1.2-3.3c-0.1-0.1-0.1-0.3-0.2-0.5c0,0,0,0,0,0c0,0,0-0.1,0-0.1c0,0,0-0.1,0-0.1
		c0,0,0,0,0-0.1c0-0.1-0.1-0.2-0.2-0.3l0,0c0-0.1,0-0.1-0.1-0.2l0,0c-0.2-0.5-0.5-1.1-0.7-1.6C857.1,332.6,856.2,332,855.3,332
		L855.3,332z M847.3,315.9c-0.4,0-0.8,0.1-1.2,0.3c-1.2,0.6-1.7,2.2-1.1,3.4c0.5,0.9,0.9,1.8,1.4,2.7c0.4,0.9,1.3,1.4,2.2,1.4
		c0.4,0,0.8-0.1,1.1-0.3c1.2-0.6,1.7-2.1,1.1-3.4c-0.5-0.9-0.9-1.8-1.4-2.7c0,0,0-0.1,0-0.1c0,0,0,0,0,0
		C849.1,316.4,848.2,315.9,847.3,315.9L847.3,315.9z M838.6,300.2c-0.4,0-0.9,0.1-1.3,0.3c-1.2,0.7-1.6,2.2-0.9,3.4
		c0.5,0.9,1,1.8,1.5,2.6c0.5,0.8,1.3,1.3,2.2,1.3c0.4,0,0.8-0.1,1.2-0.3c1.2-0.7,1.6-2.2,0.9-3.4c0-0.1-0.1-0.1-0.1-0.2c0,0,0,0,0,0
		c0,0,0-0.1-0.1-0.1c0,0,0,0,0-0.1c0,0,0,0,0-0.1c-0.4-0.8-0.9-1.5-1.3-2.3C840.3,300.6,839.4,300.2,838.6,300.2L838.6,300.2z
		 M829.2,284.9c-0.5,0-0.9,0.1-1.4,0.4c-1.2,0.8-1.5,2.3-0.7,3.5c0.6,0.9,1.1,1.7,1.7,2.6c0.5,0.7,1.3,1.2,2.1,1.2
		c0.5,0,0.9-0.1,1.3-0.4c1.2-0.7,1.5-2.3,0.8-3.4c-0.4-0.6-0.8-1.3-1.2-1.9c0,0,0,0,0,0c0,0,0-0.1-0.1-0.1c0,0,0,0,0,0
		c-0.1-0.2-0.3-0.4-0.4-0.6C830.8,285.3,830,284.9,829.2,284.9L829.2,284.9z M819,270c-0.5,0-1,0.2-1.5,0.5
		c-1.1,0.8-1.4,2.4-0.6,3.5c0.6,0.8,1.2,1.7,1.8,2.5c0.5,0.7,1.3,1.1,2,1.1c0.5,0,1-0.1,1.4-0.5c1.1-0.8,1.4-2.4,0.6-3.5
		c-0.1-0.1-0.1-0.2-0.2-0.3l0,0c0-0.1-0.1-0.1-0.1-0.2l0,0c-0.1-0.1-0.1-0.2-0.2-0.3c0,0,0,0,0,0c0,0-0.1-0.1-0.1-0.1c0,0,0,0,0,0
		c-0.1-0.1-0.1-0.2-0.2-0.3l0,0c0,0-0.1-0.1-0.1-0.1c0,0,0,0,0,0c-0.1-0.1-0.1-0.2-0.2-0.3l0,0c0,0-0.1-0.1-0.1-0.1c0,0,0,0,0,0
		c0,0-0.1-0.1-0.1-0.1c0,0,0,0,0,0c0,0-0.1-0.1-0.1-0.1c0,0,0-0.1-0.1-0.1c0,0,0,0,0-0.1c0,0,0-0.1-0.1-0.1c0,0,0,0,0,0
		c0,0,0-0.1-0.1-0.1C820.6,270.4,819.8,270,819,270L819,270z M808.3,255.6c-0.5,0-1.1,0.2-1.5,0.5c-1.1,0.9-1.3,2.4-0.4,3.5
		c0.6,0.8,1.3,1.6,1.9,2.4c0.5,0.6,1.2,1,2,1c0.5,0,1.1-0.2,1.5-0.5c1.1-0.8,1.3-2.4,0.4-3.5c0-0.1-0.1-0.1-0.1-0.2l0,0
		c0,0-0.1-0.1-0.1-0.1c0,0,0,0,0,0c0,0,0,0-0.1-0.1c-0.5-0.7-1.1-1.4-1.6-2.1C809.7,255.9,809,255.6,808.3,255.6L808.3,255.6z
		 M796.8,241.7c-0.6,0-1.2,0.2-1.6,0.6c-1,0.9-1.2,2.5-0.3,3.5c0.7,0.8,1.3,1.5,2,2.3c0.5,0.6,1.2,0.9,1.9,0.9
		c0.6,0,1.1-0.2,1.6-0.6c1.1-0.9,1.2-2.5,0.3-3.5c-0.1-0.1-0.2-0.3-0.4-0.4c0,0,0,0,0,0c0,0-0.1-0.1-0.1-0.1c0,0,0,0,0-0.1
		c0,0,0,0-0.1-0.1c-0.5-0.6-1-1.1-1.4-1.7C798.2,242,797.5,241.7,796.8,241.7L796.8,241.7z M784.8,228.4c-0.6,0-1.2,0.2-1.7,0.7
		c-1,0.9-1,2.5-0.1,3.5c0.7,0.7,1.4,1.5,2.1,2.2c0.5,0.5,1.2,0.8,1.8,0.8c0.6,0,1.2-0.2,1.7-0.7c1-0.9,1.1-2.5,0.1-3.5
		c-0.4-0.4-0.7-0.8-1.1-1.1c0,0,0,0,0,0c0,0-0.1-0.1-0.1-0.1c0,0,0,0-0.1-0.1c0,0,0,0,0,0c-0.3-0.3-0.6-0.6-0.9-0.9
		C786.1,228.6,785.4,228.4,784.8,228.4L784.8,228.4z M772.1,215.6c-0.7,0-1.3,0.3-1.8,0.8c-1,1-0.9,2.6,0.1,3.5
		c0.7,0.7,1.5,1.4,2.2,2.1c0.5,0.5,1.1,0.7,1.8,0.7c0.6,0,1.3-0.3,1.8-0.7c1-1,1-2.6,0-3.5c-0.3-0.3-0.6-0.6-0.9-0.9
		c0,0-0.1-0.1-0.1-0.1c0,0,0,0,0,0c-0.4-0.4-0.8-0.8-1.2-1.2c0,0,0,0,0,0C773.4,215.8,772.7,215.6,772.1,215.6L772.1,215.6z
		 M758.9,203.4c-0.7,0-1.4,0.3-1.9,0.8c-0.9,1-0.8,2.6,0.2,3.5c0.8,0.7,1.5,1.4,2.3,2c0.5,0.4,1.1,0.6,1.7,0.6
		c0.7,0,1.4-0.3,1.9-0.8c0.9-1,0.8-2.6-0.2-3.5c-0.7-0.7-1.5-1.3-2.2-2c0,0,0,0,0,0c0,0,0,0,0,0
		C760.1,203.6,759.5,203.4,758.9,203.4L758.9,203.4z M745.1,191.8c-0.7,0-1.5,0.3-2,0.9c-0.9,1.1-0.7,2.7,0.4,3.5
		c0.8,0.6,1.6,1.3,2.4,1.9c0.5,0.4,1,0.6,1.6,0.6c0.7,0,1.4-0.3,1.9-0.9c0.9-1.1,0.7-2.6-0.4-3.5c-0.6-0.5-1.1-0.9-1.7-1.4
		c0,0,0,0,0,0c0,0-0.1,0-0.1-0.1c0,0,0,0-0.1,0c0,0-0.1-0.1-0.1-0.1c0,0-0.1,0-0.1-0.1c0,0,0,0-0.1,0c0,0-0.1,0-0.1-0.1
		c0,0,0,0-0.1,0c0,0-0.1,0-0.1-0.1c0,0,0,0,0,0C746.2,192,745.7,191.8,745.1,191.8L745.1,191.8z M730.9,180.9c-0.8,0-1.5,0.4-2,1
		c-0.8,1.1-0.6,2.7,0.5,3.5c0.8,0.6,1.6,1.2,2.5,1.8c0.4,0.3,1,0.5,1.5,0.5c0.8,0,1.5-0.3,2-1c0.8-1.1,0.6-2.7-0.5-3.5
		c0,0-0.1,0-0.1-0.1c0,0,0,0,0,0c0,0-0.1,0-0.1-0.1c0,0-0.1,0-0.1-0.1c0,0,0,0,0,0c-0.7-0.5-1.5-1.1-2.2-1.6
		C731.9,181,731.4,180.9,730.9,180.9L730.9,180.9z M716.1,170.6c-0.8,0-1.6,0.4-2.1,1.1c-0.8,1.2-0.4,2.7,0.7,3.5
		c0.9,0.6,1.7,1.1,2.5,1.7c0.4,0.3,0.9,0.4,1.4,0.4c0.8,0,1.6-0.4,2.1-1.1c0.8-1.1,0.5-2.7-0.7-3.5c0,0,0,0,0,0c0,0-0.1,0-0.1-0.1
		c0,0,0,0-0.1-0.1c0,0,0,0,0,0c-0.5-0.3-1-0.6-1.5-1c0,0,0,0,0,0c0,0-0.1,0-0.1,0c-0.3-0.2-0.5-0.3-0.8-0.5
		C717.1,170.7,716.6,170.6,716.1,170.6L716.1,170.6z M700.9,161c-0.9,0-1.7,0.4-2.1,1.2c-0.7,1.2-0.3,2.7,0.9,3.4
		c0.9,0.5,1.7,1.1,2.6,1.6c0.4,0.2,0.9,0.4,1.3,0.4c0.8,0,1.7-0.4,2.1-1.2c0.7-1.2,0.3-2.7-0.8-3.4c-0.2-0.1-0.4-0.3-0.6-0.4
		c0,0,0,0,0,0c0,0-0.1,0-0.1-0.1c0,0,0,0-0.1,0c0,0,0,0-0.1,0c-0.3-0.2-0.6-0.3-0.8-0.5c0,0,0,0,0,0c0,0-0.1,0-0.1-0.1c0,0,0,0,0,0
		c0,0-0.1,0-0.1-0.1c0,0-0.1-0.1-0.1-0.1l0,0c-0.2-0.1-0.3-0.2-0.5-0.3C701.8,161.1,701.3,161,700.9,161L700.9,161z M685.2,152.1
		c-0.9,0-1.8,0.5-2.2,1.3c-0.7,1.2-0.2,2.7,1,3.4c0.9,0.5,1.8,1,2.7,1.5c0.4,0.2,0.8,0.3,1.2,0.3c0.9,0,1.7-0.5,2.2-1.3
		c0.7-1.2,0.2-2.7-1-3.4c-0.8-0.5-1.7-0.9-2.5-1.4c0,0,0,0,0,0c0,0-0.1,0-0.1-0.1c0,0,0,0-0.1,0c0,0,0,0-0.1,0
		C686,152.2,685.6,152.1,685.2,152.1L685.2,152.1z M669.2,144c-0.9,0-1.8,0.5-2.3,1.4c-0.6,1.2-0.1,2.7,1.2,3.3
		c0.9,0.4,1.8,0.9,2.8,1.3c0.4,0.2,0.7,0.3,1.1,0.3c0.9,0,1.8-0.5,2.2-1.4c0.6-1.2,0.1-2.7-1.1-3.3c-0.6-0.3-1.3-0.6-1.9-0.9l0,0
		c-0.1,0-0.1-0.1-0.2-0.1l0,0c-0.1-0.1-0.2-0.1-0.3-0.2l0,0c-0.1-0.1-0.2-0.1-0.3-0.2C669.9,144.1,669.6,144,669.2,144L669.2,144z
		 M652.8,136.6c-1,0-1.9,0.6-2.3,1.5c-0.5,1.3,0.1,2.7,1.3,3.3c0.9,0.4,1.9,0.8,2.8,1.2c0.3,0.1,0.7,0.2,1,0.2c1,0,1.9-0.6,2.3-1.5
		c0.5-1.3,0-2.7-1.3-3.3c-1-0.4-1.9-0.8-2.9-1.2C653.5,136.7,653.1,136.6,652.8,136.6L652.8,136.6z M636.1,130c-1,0-2,0.6-2.3,1.6
		c-0.5,1.3,0.2,2.7,1.5,3.2c1,0.4,1.9,0.7,2.9,1.1c0.3,0.1,0.6,0.2,0.9,0.2c1,0,2-0.6,2.3-1.6c0.5-1.3-0.2-2.7-1.4-3.2
		c-0.2-0.1-0.4-0.2-0.6-0.2c0,0,0,0,0,0c0,0-0.1,0-0.1,0c0,0-0.1,0-0.1,0c0,0,0,0,0,0c-0.1,0-0.1,0-0.2-0.1c0,0,0,0,0,0
		c0,0-0.1,0-0.1-0.1c0,0,0,0,0,0c-0.2-0.1-0.3-0.1-0.5-0.2c0,0,0,0,0,0c0,0-0.1,0-0.1,0c0,0,0,0-0.1,0c0,0,0,0-0.1,0
		c-0.3-0.1-0.6-0.2-0.8-0.3C636.7,130,636.4,130,636.1,130L636.1,130z M619.1,124.1c-1.1,0-2,0.7-2.4,1.7c-0.4,1.3,0.3,2.7,1.6,3.1
		c1,0.3,1.9,0.6,2.9,0.9c0.3,0.1,0.5,0.1,0.8,0.1c1.1,0,2-0.7,2.4-1.7c0.4-1.3-0.3-2.7-1.6-3.1c-0.6-0.2-1.2-0.4-1.8-0.6
		c0,0,0,0,0,0c0,0-0.1,0-0.1,0c0,0-0.1,0-0.1,0c0,0,0,0-0.1,0c0,0-0.1,0-0.1,0c0,0,0,0,0,0c-0.2-0.1-0.5-0.2-0.7-0.2
		C619.6,124.1,619.4,124.1,619.1,124.1L619.1,124.1z M601.8,119c-1.1,0-2.1,0.7-2.4,1.9c-0.4,1.3,0.4,2.7,1.8,3.1c1,0.3,2,0.5,3,0.8
		c0.2,0.1,0.4,0.1,0.7,0.1c1.1,0,2.1-0.7,2.4-1.8c0.4-1.3-0.4-2.7-1.7-3.1c-1-0.3-2-0.5-3-0.8C602.3,119.1,602.1,119,601.8,119
		L601.8,119z M584.4,114.8c-1.1,0-2.2,0.8-2.4,2c-0.3,1.3,0.6,2.7,1.9,3c1,0.2,2,0.4,3,0.7c0.2,0,0.4,0.1,0.6,0.1
		c1.1,0,2.2-0.8,2.4-1.9c0.3-1.3-0.5-2.7-1.9-3c-0.2-0.1-0.5-0.1-0.7-0.2c0,0,0,0-0.1,0c0,0-0.1,0-0.1,0c-0.7-0.2-1.4-0.3-2.2-0.5
		C584.7,114.8,584.5,114.8,584.4,114.8L584.4,114.8z M566.7,111.3c-1.2,0-2.3,0.9-2.5,2.1c-0.2,1.4,0.7,2.7,2,2.9c1,0.2,2,0.3,3,0.5
		c0.1,0,0.3,0,0.4,0c1.2,0,2.2-0.8,2.5-2.1c0.2-1.4-0.7-2.7-2-2.9c-1-0.2-2.1-0.4-3.1-0.5C567,111.4,566.9,111.3,566.7,111.3
		L566.7,111.3z M548.9,108.7c-1.2,0-2.3,0.9-2.5,2.2c-0.2,1.4,0.8,2.6,2.2,2.8c1,0.1,2,0.3,3,0.4c0.1,0,0.2,0,0.3,0
		c1.2,0,2.3-0.9,2.5-2.2c0.2-1.4-0.8-2.6-2.1-2.8c-0.7-0.1-1.5-0.2-2.2-0.3c0,0,0,0-0.1,0c0,0-0.1,0-0.1,0c0,0-0.1,0-0.1,0
		c0,0-0.1,0-0.1,0c0,0-0.1,0-0.1,0c0,0-0.1,0-0.1,0c0,0-0.1,0-0.1,0c-0.1,0-0.1,0-0.1,0c0,0,0,0-0.1,0c0,0,0,0,0,0
		C549.1,108.7,549,108.7,548.9,108.7L548.9,108.7z M531,106.9c-1.3,0-2.4,1-2.5,2.3c-0.1,1.4,0.9,2.6,2.3,2.7c1,0.1,2,0.2,3.1,0.3
		c0.1,0,0.1,0,0.2,0c1.3,0,2.4-1,2.5-2.3c0.1-1.4-0.9-2.6-2.3-2.7c0,0,0,0-0.1,0c0,0-0.1,0-0.1,0c0,0-0.1,0-0.1,0c0,0-0.1,0-0.1,0
		c-0.1,0-0.1,0-0.2,0c0,0,0,0-0.1,0c0,0-0.1,0-0.1,0c0,0,0,0-0.1,0c0,0-0.1,0-0.1,0c0,0,0,0,0,0c0,0-0.1,0-0.1,0c0,0,0,0,0,0
		c-0.4,0-0.8-0.1-1.2-0.1c0,0,0,0-0.1,0c0,0-0.1,0-0.1,0c0,0-0.1,0-0.1,0l0,0c-0.2,0-0.4,0-0.6,0C531.2,106.9,531.1,106.9,531,106.9
		L531,106.9z M513.1,105.9c-1.3,0-2.5,1.1-2.5,2.4c0,1.4,1,2.5,2.4,2.6c1,0,2,0.1,3.1,0.1c0,0,0.1,0,0.1,0c1.3,0,2.4-1.1,2.5-2.4
		c0.1-1.4-1-2.5-2.4-2.6c-0.3,0-0.6,0-0.9,0c0,0,0,0,0,0c-0.1,0-0.1,0-0.1,0c0,0,0,0,0,0C514.5,105.9,513.8,105.9,513.1,105.9
		C513.1,105.9,513.1,105.9,513.1,105.9L513.1,105.9z"/>
</g>
<text transform="matrix(1 0 0 1 320.1035 543.5276)" class="st2 st3 st4">arabot</text>
</svg>
